# Blender 5.2.0 LTS
# www.blender.org
mtllib humanMan.mtl
o Plane.007
v 0.018309 -0.016325 -0.012858
v 0.066628 -0.011463 -0.017777
v 0.021840 0.072581 -0.056734
v 0.056617 0.076395 -0.065417
v 0.088886 0.083007 -0.077465
v 0.120616 0.002195 -0.043649
v 0.013458 -0.097104 -0.002102
v 0.067611 -0.110438 -0.012129
v 0.150787 -0.087748 -0.047017
v 0.183402 -0.043854 -0.096285
v 0.147638 0.016155 -0.081245
v 0.114639 0.088878 -0.096097
v 0.199764 0.058629 -0.116173
v 0.147638 0.085714 -0.111673
v 0.094354 0.119399 -0.158413
v 0.071332 0.133300 -0.154184
v 0.051876 0.116191 -0.100372
v 0.023071 0.104675 -0.077988
v -0.000292 0.119105 -0.079986
v 0.024461 0.123165 -0.086781
v 0.064593 -0.131547 -0.017383
v 0.153838 -0.119919 -0.054306
v 0.163036 -0.142285 -0.121058
v 0.170142 -0.112531 -0.102763
v 0.180225 -0.077259 -0.123992
v 0.188854 -0.052317 -0.128793
v 0.217797 0.015812 -0.121716
v 0.144680 0.100457 -0.158302
v 0.217421 0.065390 -0.159940
v 0.238745 0.020526 -0.164269
v 0.222739 -0.001639 -0.125934
v 0.243570 0.001255 -0.165756
v 0.167120 -0.118143 -0.136509
v 0.173097 -0.089784 -0.155702
v 0.180472 -0.091661 -0.160657
v 0.172856 -0.078409 -0.195315
v 0.167404 -0.080083 -0.204683
v 0.180924 -0.039045 -0.228631
v 0.195894 -0.062119 -0.213808
v 0.226435 -0.017281 -0.208452
v 0.217720 0.007388 -0.208923
v 0.203835 0.063166 -0.206505
v 0.141264 0.097590 -0.201405
v 0.099169 0.115684 -0.198806
v 0.073283 0.135702 -0.181884
v 0.040914 0.121688 -0.204130
v 0.082087 0.078966 -0.229460
v 0.108853 0.000670 -0.253349
v 0.149804 0.034798 -0.242998
v 0.116678 -0.080563 -0.237522
v 0.051399 -0.007508 -0.256407
v 0.027867 0.160493 -0.184778
v 0.045435 0.152841 -0.170565
v 0.054887 0.145969 -0.149953
v 0.049723 0.137029 -0.119878
v 0.054920 -0.097334 -0.248089
v 0.157587 -0.106717 -0.195256
v 0.151359 -0.139082 -0.186284
v 0.043450 -0.188711 -0.213802
v 0.138920 -0.183837 -0.177918
v 0.153442 -0.184138 -0.113543
v 0.139591 -0.180253 -0.052084
v 0.067607 -0.163352 -0.016697
v 0.071167 -0.251018 -0.016625
v 0.133979 -0.240030 -0.053065
v 0.144061 -0.234856 -0.110223
v 0.122753 -0.237969 -0.167041
v 0.046760 -0.239157 -0.195097
v 0.074045 -0.341727 -0.014045
v 0.128137 -0.321217 -0.055516
v 0.142300 -0.308156 -0.112026
v 0.127737 -0.308737 -0.167637
v 0.079893 -0.315768 -0.199915
v 0.026399 -0.294095 -0.202216
v 0.040851 -0.346795 -0.216546
v 0.052121 -0.400907 -0.246228
v 0.066630 -0.467090 -0.266415
v 0.111756 -0.390233 -0.218928
v 0.136244 -0.379054 -0.172456
v 0.148435 -0.378616 -0.114916
v 0.129010 -0.402625 -0.053782
v 0.081892 -0.432343 -0.021158
v 0.085797 -0.493271 -0.038919
v 0.017959 -0.589082 -0.068051
v 0.007989 -0.599259 -0.179106
v 0.074343 -0.553583 -0.261155
v 0.079811 -0.572558 -0.248681
v 0.023522 -0.667317 -0.181625
v 0.038596 -0.746772 -0.175094
v 0.088642 -0.677689 -0.237501
v 0.143218 -0.556061 -0.241059
v 0.144471 -0.530121 -0.249564
v 0.137258 -0.457876 -0.246834
v 0.171494 -0.455598 -0.200130
v 0.166893 -0.433965 -0.122146
v 0.185635 -0.575647 -0.209242
v 0.149618 -0.650476 -0.247223
v 0.091075 -0.736147 -0.227463
v 0.149093 -0.711734 -0.241145
v 0.185225 -0.685599 -0.205100
v 0.195035 -0.554215 -0.127060
v 0.201078 -0.668395 -0.137447
v 0.194811 -0.781374 -0.147163
v 0.181585 -0.790510 -0.209279
v 0.148375 -0.806173 -0.246973
v 0.095406 -0.821024 -0.231206
v 0.055190 -0.823585 -0.173548
v 0.053872 -0.743152 -0.103731
v 0.119494 -0.702352 -0.055610
v 0.182235 -0.678587 -0.071729
v 0.167610 -0.579555 -0.058144
v 0.111324 -0.620531 -0.044577
v 0.040018 -0.667456 -0.092812
v 0.069838 -0.817508 -0.112044
v 0.124028 -0.790784 -0.078158
v 0.171438 -0.780654 -0.095396
v 0.160707 -0.880905 -0.114127
v 0.127537 -0.878067 -0.097288
v 0.081626 -0.893086 -0.121822
v 0.065702 -0.898350 -0.168973
v 0.101486 -0.904560 -0.231096
v 0.149617 -0.897177 -0.248107
v 0.175268 -0.894169 -0.210731
v 0.184658 -0.893081 -0.155763
v 0.167682 -0.934373 -0.123438
v 0.185459 -0.964492 -0.173189
v 0.182601 -0.938437 -0.214623
v 0.183447 -0.924371 -0.165311
v 0.151840 -0.928133 -0.249148
v 0.102469 -0.946497 -0.234951
v 0.071951 -0.938083 -0.175238
v 0.090403 -0.947183 -0.130858
v 0.104985 -0.997019 -0.147786
v 0.085270 -0.984639 -0.182457
v 0.132326 -0.940952 -0.100930
v 0.138223 -1.005561 -0.133287
v 0.165673 -0.988727 -0.144553
v 0.205498 -1.119237 -0.185994
v 0.214978 -1.117448 -0.222467
v 0.201396 -1.018592 -0.255748
v 0.168557 -1.014398 -0.280089
v 0.112659 -1.024657 -0.268549
v 0.099526 -1.118561 -0.236877
v 0.115055 -1.118524 -0.272265
v 0.170591 -1.118738 -0.290253
v 0.209917 -1.118809 -0.260331
v 0.181740 -1.119966 -0.163220
v 0.153129 -1.119774 -0.151532
v 0.116423 -1.118123 -0.174435
v 0.092955 -1.117850 -0.202075
v 0.157731 -1.353899 -0.164747
v 0.177071 -1.348611 -0.171920
v 0.185948 -1.349597 -0.193593
v 0.185338 -1.350366 -0.222918
v 0.200960 -1.208729 -0.245070
v 0.171276 -1.208334 -0.275696
v 0.128774 -1.213432 -0.261891
v 0.132928 -1.347909 -0.226873
v 0.160012 -1.348172 -0.240724
v 0.124648 -1.351079 -0.199531
v 0.132168 -1.354019 -0.181435
v 0.182965 -1.389079 -0.199327
v 0.176398 -1.393997 -0.226336
v 0.157561 -1.391270 -0.234483
v 0.138256 -1.392388 -0.229781
v 0.126930 -1.382234 -0.195810
v 0.136372 -1.382374 -0.166692
v 0.159974 -1.381082 -0.159683
v 0.176346 -1.385111 -0.172408
v 0.182011 -1.408166 -0.142065
v 0.163041 -1.406009 -0.132786
v 0.138400 -1.411754 -0.140167
v 0.123201 -1.425945 -0.181200
v 0.123973 -1.449455 -0.234087
v 0.155106 -1.442414 -0.256025
v 0.189650 -1.447242 -0.242468
v 0.197983 -1.434505 -0.192197
v 0.163945 -1.439454 -0.069653
v 0.188500 -1.446036 -0.081208
v 0.208692 -1.455443 -0.142410
v 0.215997 -1.463901 -0.094755
v 0.204620 -1.483884 -0.148185
v 0.194473 -1.481980 -0.200552
v 0.185456 -1.484647 -0.235412
v 0.218960 -1.489169 -0.097970
v 0.205508 -1.464844 -0.039073
v 0.156519 -1.451179 -0.008415
v 0.158420 -1.484834 -0.007659
v 0.206634 -1.488989 -0.043109
v 0.128611 -1.485424 -0.222870
v 0.124018 -1.484050 -0.196117
v 0.123640 -1.455654 -0.135705
v 0.134154 -1.450076 -0.075777
v 0.119245 -1.476845 -0.077615
v 0.121009 -1.481393 -0.141951
v 0.115094 -1.489674 -0.083364
v 0.120405 -1.459952 -0.040682
v 0.117267 -1.490554 -0.040610
v 0.155356 -1.484356 -0.247216
v 0.162816 -1.485577 -0.195171
v 0.166118 -1.488253 -0.143907
v 0.171129 -1.490792 -0.093146
v 0.319062 -0.192190 -0.113335
v 0.333744 -0.170256 -0.150730
v 0.305685 -0.170431 -0.199535
v 0.282421 -0.183218 -0.210766
v 0.269454 -0.206591 -0.178917
v 0.269735 -0.218929 -0.138651
v 0.281980 -0.215227 -0.118251
v 0.291529 -0.230578 -0.119890
v 0.327117 -0.204565 -0.114074
v 0.353425 -0.189381 -0.141860
v 0.330890 -0.201927 -0.202209
v 0.307922 -0.219307 -0.216326
v 0.289081 -0.238902 -0.188668
v 0.278077 -0.241182 -0.139648
v 0.334966 -0.219962 -0.106206
v 0.366824 -0.210328 -0.130871
v 0.363303 -0.245702 -0.183486
v 0.339948 -0.266353 -0.196553
v 0.308525 -0.274378 -0.175127
v 0.291567 -0.262122 -0.135479
v 0.300697 -0.248413 -0.114932
v 0.432669 -0.409158 -0.017356
v 0.457466 -0.394268 -0.029755
v 0.469358 -0.404317 -0.061969
v 0.462059 -0.424731 -0.085901
v 0.448467 -0.438929 -0.086077
v 0.432340 -0.437698 -0.069258
v 0.428704 -0.424122 -0.040071
v 0.141400 -0.450666 -0.053135
v 0.051184 0.377973 -0.029123
v 0.033320 0.178020 -0.039193
v 0.073861 0.392696 -0.109575
v 0.055004 0.199440 -0.129986
v 0.033886 0.401817 -0.161760
v 0.030155 0.209476 -0.171383
v 0.046109 0.218598 -0.035618
v 0.061049 0.260944 -0.026516
v 0.062396 0.302074 -0.039140
v 0.061939 0.338202 -0.030872
v 0.076571 0.244578 -0.131965
v 0.086733 0.285726 -0.136549
v 0.090775 0.326020 -0.137219
v 0.089799 0.362148 -0.124451
v 0.034776 0.259760 -0.188147
v 0.039086 0.300890 -0.203720
v 0.039910 0.342020 -0.202749
v 0.037866 0.378243 -0.183200
v 0.057844 0.397398 -0.138722
v 0.043295 0.205257 -0.155145
v 0.066689 0.371532 -0.158576
v 0.067310 0.335396 -0.176610
v 0.065921 0.294266 -0.175425
v 0.057051 0.253581 -0.166072
v 0.061108 0.190478 -0.094019
v 0.084976 0.311896 -0.082272
v 0.072511 0.385734 -0.076239
v 0.086253 0.350494 -0.080332
v 0.074262 0.231021 -0.083955
v 0.084518 0.272516 -0.080995
v 0.032959 0.412084 -0.132328
v 0.032921 0.417647 -0.091590
v 0.041266 0.407721 -0.057683
v 0.049536 0.409104 -0.124461
v 0.052765 0.409666 -0.096430
v 0.056249 0.408120 -0.077703
v 0.025732 0.173043 -0.087714
v 0.052600 0.183992 -0.136917
v 0.029348 0.192141 -0.173191
v 0.043476 0.188318 -0.159314
v 0.052917 0.178336 -0.113795
v 0.503994 -0.523441 -0.039545
v 0.487951 -0.490917 0.037992
v 0.448509 -0.435776 -0.080541
v 0.432812 -0.409162 -0.025044
v 0.522616 -0.514399 -0.040844
v 0.505043 -0.481458 0.034691
v 0.463987 -0.426412 -0.082571
v 0.449761 -0.399069 -0.029331
v 0.467670 -0.468200 -0.070862
v 0.486715 -0.495966 -0.054039
v 0.467480 -0.461128 0.018924
v 0.447998 -0.433098 0.001340
v 0.504985 -0.484625 -0.056675
v 0.486293 -0.456622 -0.073585
v 0.467800 -0.421528 -0.003800
v 0.486782 -0.449303 0.014448
v 0.502821 -0.516340 -0.022798
v 0.493354 -0.497945 0.019745
v 0.437634 -0.415099 -0.040179
v 0.446477 -0.428921 -0.067536
v 0.456543 -0.402779 -0.044294
v 0.463221 -0.416165 -0.071089
v 0.512442 -0.486617 0.016575
v 0.520974 -0.505342 -0.026696
v 0.475929 -0.425415 -0.020632
v 0.484947 -0.445135 -0.059339
v 0.495396 -0.453522 -0.003152
v 0.504748 -0.474059 -0.043507
v 0.473128 -0.468631 0.001123
v 0.485333 -0.489053 -0.038751
v 0.453832 -0.440408 -0.016373
v 0.465992 -0.460736 -0.056060
v 0.502409 -0.496235 0.016134
v 0.486926 -0.502038 0.014794
v 0.511583 -0.520157 0.028562
v 0.496100 -0.525959 0.027221
v 0.497298 -0.487723 0.036291
v 0.481815 -0.493526 0.034951
v 0.506472 -0.511645 0.048719
v 0.490989 -0.517448 0.047378
v 0.510912 -0.521172 -0.039903
v 0.496245 -0.529622 -0.039824
v 0.523798 -0.542449 -0.027930
v 0.509131 -0.550899 -0.027851
v 0.500762 -0.497243 0.015605
v 0.485839 -0.506025 0.015037
v 0.513649 -0.518520 0.027578
v 0.498725 -0.527302 0.027010
v 0.510406 -0.522459 0.028262
v 0.494851 -0.524891 0.025547
v 0.513652 -0.548643 0.040839
v 0.498096 -0.551075 0.038123
v 0.505322 -0.513456 0.048318
v 0.489766 -0.515888 0.045602
v 0.508567 -0.539640 0.060895
v 0.493012 -0.542072 0.058179
v 0.521872 -0.545292 -0.028445
v 0.506690 -0.550303 -0.029726
v 0.529287 -0.569398 -0.014418
v 0.514099 -0.574414 -0.015719
v 0.511701 -0.521468 0.027314
v 0.496276 -0.526722 0.025353
v 0.519405 -0.546250 0.039755
v 0.503981 -0.551504 0.037794
v 0.512544 -0.551283 0.040873
v 0.497338 -0.549344 0.036878
v 0.506023 -0.576817 0.053731
v 0.493136 -0.575173 0.050346
v 0.508317 -0.541633 0.060956
v 0.493111 -0.539694 0.056961
v 0.502441 -0.568639 0.070752
v 0.489553 -0.566995 0.067367
v 0.527354 -0.571425 -0.013952
v 0.512064 -0.573701 -0.016233
v 0.528562 -0.594200 0.006750
v 0.513239 -0.596503 0.004365
v 0.517886 -0.548125 0.039640
v 0.502381 -0.550578 0.036686
v 0.520561 -0.574512 0.052034
v 0.505056 -0.576964 0.049081
v 0.471529 -0.431958 0.003478
v 0.456693 -0.441606 0.006187
v 0.482815 -0.451563 0.016701
v 0.468636 -0.459086 0.017830
v 0.462458 -0.422868 -0.002601
v 0.448941 -0.431006 0.000558
v 0.471138 -0.431734 0.027293
v 0.457201 -0.439733 0.028118
v 0.482936 -0.452919 0.020761
v 0.468195 -0.458389 0.016873
v 0.472067 -0.433057 0.030047
v 0.457450 -0.438498 0.026089
v 0.462490 -0.474977 0.041497
v 0.477218 -0.470713 0.046653
v 0.466688 -0.450996 0.057346
v 0.452077 -0.455216 0.052092
v 0.477239 -0.471450 0.047534
v 0.463184 -0.473793 0.040125
v 0.466646 -0.452200 0.058821
v 0.452687 -0.454556 0.051387
v 0.447214 -0.490992 0.057381
v 0.459226 -0.489549 0.063882
v 0.450425 -0.473951 0.074922
v 0.438526 -0.475353 0.068359
v -0.018309 -0.016325 -0.012858
v -0.066628 -0.011463 -0.017777
v -0.021840 0.072581 -0.056734
v -0.056617 0.076395 -0.065417
v -0.088886 0.083007 -0.077465
v -0.120616 0.002195 -0.043649
v -0.013458 -0.097104 -0.002102
v -0.067611 -0.110438 -0.012129
v -0.150787 -0.087748 -0.047017
v -0.183402 -0.043854 -0.096285
v -0.147638 0.016155 -0.081245
v -0.114639 0.088878 -0.096097
v -0.199764 0.058629 -0.116173
v -0.147638 0.085714 -0.111673
v -0.094354 0.119399 -0.158413
v -0.071332 0.133300 -0.154184
v -0.051876 0.116191 -0.100372
v -0.023071 0.104675 -0.077988
v 0.000000 0.069720 -0.057735
v 0.000000 0.100122 -0.075028
v 0.000292 0.119105 -0.079986
v -0.024461 0.123165 -0.086781
v 0.000000 -0.017395 -0.016523
v 0.000000 -0.093517 -0.006835
v 0.000000 -0.115054 -0.004562
v -0.064593 -0.131547 -0.017383
v -0.153838 -0.119919 -0.054306
v -0.163036 -0.142285 -0.121058
v -0.170142 -0.112531 -0.102763
v -0.180225 -0.077259 -0.123992
v -0.188854 -0.052317 -0.128793
v -0.217797 0.015812 -0.121716
v -0.144680 0.100457 -0.158302
v -0.217421 0.065390 -0.159940
v -0.238745 0.020526 -0.164269
v -0.222739 -0.001639 -0.125934
v -0.243570 0.001255 -0.165756
v -0.167120 -0.118143 -0.136509
v -0.173097 -0.089784 -0.155702
v -0.180472 -0.091661 -0.160657
v -0.172856 -0.078409 -0.195315
v -0.167404 -0.080083 -0.204683
v -0.180924 -0.039045 -0.228631
v -0.195894 -0.062119 -0.213808
v -0.226435 -0.017281 -0.208452
v -0.217720 0.007388 -0.208923
v -0.203835 0.063166 -0.206505
v -0.141264 0.097590 -0.201405
v -0.099169 0.115684 -0.198806
v -0.073283 0.135702 -0.181884
v -0.040914 0.121688 -0.204130
v -0.082087 0.078966 -0.229460
v -0.108853 0.000670 -0.253349
v -0.149804 0.034798 -0.242998
v -0.116678 -0.080563 -0.237522
v -0.051399 -0.007508 -0.256407
v 0.000000 0.003505 -0.253370
v 0.000000 0.120465 -0.209802
v -0.027867 0.160493 -0.184778
v 0.000000 0.161566 -0.187789
v -0.045435 0.152841 -0.170565
v -0.054887 0.145969 -0.149953
v -0.049723 0.137029 -0.119878
v -0.054920 -0.097334 -0.248089
v 0.000000 -0.095337 -0.249810
v -0.157587 -0.106717 -0.195256
v -0.151359 -0.139082 -0.186284
v -0.043450 -0.188711 -0.213802
v 0.000000 -0.188314 -0.215830
v -0.138920 -0.183837 -0.177918
v -0.153442 -0.184138 -0.113543
v -0.139591 -0.180253 -0.052084
v -0.067607 -0.163352 -0.016697
v 0.000000 -0.163547 -0.002814
v 0.000000 -0.259024 -0.002872
v -0.071167 -0.251018 -0.016625
v -0.133979 -0.240030 -0.053065
v -0.144061 -0.234856 -0.110223
v -0.122753 -0.237969 -0.167041
v -0.046760 -0.239157 -0.195097
v 0.000000 -0.238089 -0.201025
v 0.000000 -0.364163 -0.004208
v 0.000000 -0.471727 -0.016367
v -0.074045 -0.341727 -0.014045
v -0.128137 -0.321217 -0.055516
v -0.142300 -0.308156 -0.112026
v -0.127737 -0.308737 -0.167637
v -0.079893 -0.315768 -0.199915
v -0.026399 -0.294095 -0.202216
v 0.000000 -0.295271 -0.206226
v -0.040851 -0.346795 -0.216546
v 0.000000 -0.349001 -0.219407
v -0.052121 -0.400907 -0.246228
v 0.000000 -0.402871 -0.238542
v -0.066630 -0.467090 -0.266415
v 0.000000 -0.464281 -0.241565
v -0.111756 -0.390233 -0.218928
v -0.136244 -0.379054 -0.172456
v -0.148435 -0.378616 -0.114916
v -0.129010 -0.402625 -0.053782
v -0.081892 -0.432343 -0.021158
v 0.000000 -0.574208 -0.062752
v -0.085797 -0.493271 -0.038919
v -0.017959 -0.589082 -0.068051
v -0.007989 -0.599259 -0.179106
v 0.000000 -0.583884 -0.182559
v 0.000000 -0.549261 -0.217861
v 0.000000 -0.529850 -0.232977
v -0.074343 -0.553583 -0.261155
v -0.079811 -0.572558 -0.248681
v -0.023522 -0.667317 -0.181625
v -0.038596 -0.746772 -0.175094
v -0.088642 -0.677689 -0.237501
v -0.143218 -0.556061 -0.241059
v -0.144471 -0.530121 -0.249564
v -0.137258 -0.457876 -0.246834
v -0.171494 -0.455598 -0.200130
v -0.166893 -0.433965 -0.122146
v -0.185635 -0.575647 -0.209242
v -0.149618 -0.650476 -0.247223
v -0.091075 -0.736147 -0.227463
v -0.149093 -0.711734 -0.241145
v -0.185225 -0.685599 -0.205100
v -0.195035 -0.554215 -0.127060
v -0.201078 -0.668395 -0.137447
v -0.194811 -0.781374 -0.147163
v -0.181585 -0.790510 -0.209279
v -0.148375 -0.806173 -0.246973
v -0.095406 -0.821024 -0.231206
v -0.055190 -0.823585 -0.173548
v -0.053872 -0.743152 -0.103731
v -0.119494 -0.702352 -0.055610
v -0.182235 -0.678587 -0.071729
v -0.167610 -0.579555 -0.058144
v -0.111324 -0.620531 -0.044577
v -0.040018 -0.667456 -0.092812
v -0.069838 -0.817508 -0.112044
v -0.124028 -0.790784 -0.078158
v -0.171438 -0.780654 -0.095396
v -0.160707 -0.880905 -0.114127
v -0.127537 -0.878067 -0.097288
v -0.081626 -0.893086 -0.121822
v -0.065702 -0.898350 -0.168973
v -0.101486 -0.904560 -0.231096
v -0.149617 -0.897177 -0.248107
v -0.175268 -0.894169 -0.210731
v -0.184658 -0.893081 -0.155763
v -0.167682 -0.934373 -0.123438
v -0.185459 -0.964492 -0.173189
v -0.182601 -0.938437 -0.214623
v -0.183447 -0.924371 -0.165311
v -0.151840 -0.928133 -0.249148
v -0.102469 -0.946497 -0.234951
v -0.071951 -0.938083 -0.175238
v -0.090403 -0.947183 -0.130858
v -0.104985 -0.997019 -0.147786
v -0.085270 -0.984639 -0.182457
v -0.132326 -0.940952 -0.100930
v -0.138223 -1.005561 -0.133287
v -0.165673 -0.988727 -0.144553
v -0.205498 -1.119237 -0.185994
v -0.214978 -1.117448 -0.222467
v -0.201396 -1.018592 -0.255748
v -0.168557 -1.014398 -0.280089
v -0.112659 -1.024657 -0.268549
v -0.099526 -1.118561 -0.236877
v -0.115055 -1.118524 -0.272265
v -0.170591 -1.118738 -0.290253
v -0.209917 -1.118809 -0.260331
v -0.181740 -1.119966 -0.163220
v -0.153129 -1.119774 -0.151532
v -0.116423 -1.118123 -0.174435
v -0.092955 -1.117850 -0.202075
v -0.157731 -1.353899 -0.164747
v -0.177071 -1.348611 -0.171920
v -0.185948 -1.349597 -0.193593
v -0.185338 -1.350366 -0.222918
v -0.200960 -1.208729 -0.245070
v -0.171276 -1.208334 -0.275696
v -0.128774 -1.213432 -0.261891
v -0.132928 -1.347909 -0.226873
v -0.160012 -1.348172 -0.240724
v -0.124648 -1.351079 -0.199531
v -0.132168 -1.354019 -0.181435
v -0.182965 -1.389079 -0.199327
v -0.176398 -1.393997 -0.226336
v -0.157561 -1.391270 -0.234483
v -0.138256 -1.392388 -0.229781
v -0.126930 -1.382234 -0.195810
v -0.136372 -1.382374 -0.166692
v -0.159974 -1.381082 -0.159683
v -0.176346 -1.385111 -0.172408
v -0.182011 -1.408166 -0.142065
v -0.163041 -1.406009 -0.132786
v -0.138400 -1.411754 -0.140167
v -0.123201 -1.425945 -0.181200
v -0.123973 -1.449455 -0.234087
v -0.155106 -1.442414 -0.256025
v -0.189650 -1.447242 -0.242468
v -0.197983 -1.434505 -0.192197
v -0.163945 -1.439454 -0.069653
v -0.188500 -1.446036 -0.081208
v -0.208692 -1.455443 -0.142410
v -0.215997 -1.463901 -0.094755
v -0.204620 -1.483884 -0.148185
v -0.194473 -1.481980 -0.200552
v -0.185456 -1.484647 -0.235412
v -0.218960 -1.489169 -0.097970
v -0.205508 -1.464844 -0.039073
v -0.156519 -1.451179 -0.008415
v -0.158420 -1.484834 -0.007659
v -0.206634 -1.488989 -0.043109
v -0.128611 -1.485424 -0.222870
v -0.124018 -1.484050 -0.196117
v -0.123640 -1.455654 -0.135705
v -0.134154 -1.450076 -0.075777
v -0.119245 -1.476845 -0.077615
v -0.121009 -1.481393 -0.141951
v -0.115094 -1.489674 -0.083364
v -0.120405 -1.459952 -0.040682
v -0.117267 -1.490554 -0.040610
v -0.155356 -1.484356 -0.247216
v -0.162816 -1.485577 -0.195171
v -0.166118 -1.488253 -0.143907
v -0.171129 -1.490792 -0.093146
v -0.319062 -0.192190 -0.113335
v -0.333744 -0.170256 -0.150730
v -0.305685 -0.170431 -0.199535
v -0.282421 -0.183218 -0.210766
v -0.269454 -0.206591 -0.178917
v -0.269735 -0.218929 -0.138651
v -0.281980 -0.215227 -0.118251
v -0.291529 -0.230578 -0.119890
v -0.327117 -0.204565 -0.114074
v -0.353425 -0.189381 -0.141860
v -0.330890 -0.201927 -0.202209
v -0.307922 -0.219307 -0.216326
v -0.289081 -0.238902 -0.188668
v -0.278077 -0.241182 -0.139648
v -0.334966 -0.219962 -0.106206
v -0.366824 -0.210328 -0.130871
v -0.363303 -0.245702 -0.183486
v -0.339948 -0.266353 -0.196553
v -0.308525 -0.274378 -0.175127
v -0.291567 -0.262122 -0.135479
v -0.300697 -0.248413 -0.114932
v -0.432669 -0.409158 -0.017356
v -0.457466 -0.394268 -0.029755
v -0.469358 -0.404317 -0.061969
v -0.462059 -0.424731 -0.085901
v -0.448467 -0.438929 -0.086077
v -0.432340 -0.437698 -0.069258
v -0.428704 -0.424122 -0.040071
v -0.141400 -0.450666 -0.053135
v 0.000000 0.373001 -0.001463
v 0.000000 0.172822 -0.017232
v -0.051184 0.377973 -0.029123
v -0.033320 0.178020 -0.039193
v -0.073861 0.392696 -0.109575
v -0.055004 0.199440 -0.129986
v -0.033886 0.401817 -0.161760
v -0.030155 0.209476 -0.171383
v 0.000000 0.329884 0.000774
v 0.000000 0.293756 -0.005069
v 0.000000 0.252626 0.010386
v 0.000000 0.211496 -0.009301
v -0.046109 0.218598 -0.035618
v -0.061049 0.260944 -0.026516
v -0.062396 0.302074 -0.039140
v -0.061939 0.338202 -0.030872
v -0.076571 0.244578 -0.131965
v -0.086733 0.285726 -0.136549
v -0.090775 0.326020 -0.137219
v -0.089799 0.362148 -0.124451
v -0.034776 0.259760 -0.188147
v -0.039086 0.300890 -0.203720
v -0.039910 0.342020 -0.202749
v -0.037866 0.378243 -0.183200
v 0.000000 0.402990 -0.168284
v 0.000000 0.211191 -0.179327
v 0.000000 0.380054 -0.190089
v 0.000000 0.343926 -0.210557
v 0.000000 0.302796 -0.212177
v 0.000000 0.261666 -0.195211
v -0.057844 0.397398 -0.138722
v -0.043295 0.205257 -0.155145
v -0.066689 0.371532 -0.158576
v -0.067310 0.335396 -0.176610
v -0.065921 0.294266 -0.175425
v -0.057051 0.253581 -0.166072
v -0.061108 0.190478 -0.094019
v -0.084976 0.311896 -0.082272
v -0.072511 0.385734 -0.076239
v -0.086253 0.350494 -0.080332
v -0.074262 0.231021 -0.083955
v -0.084518 0.272516 -0.080995
v 0.000000 0.406554 -0.040117
v 0.000000 0.420495 -0.088410
v 0.000000 0.413564 -0.134604
v -0.032959 0.412084 -0.132328
v -0.032921 0.417647 -0.091590
v -0.041266 0.407721 -0.057683
v -0.049536 0.409104 -0.124461
v -0.052765 0.409666 -0.096430
v -0.056249 0.408120 -0.077703
v 0.000000 0.170610 -0.076825
v -0.025732 0.173043 -0.087714
v -0.052600 0.183992 -0.136917
v -0.029348 0.192141 -0.173191
v 0.000000 0.193149 -0.177700
v -0.043476 0.188318 -0.159314
v -0.052917 0.178336 -0.113795
v -0.503994 -0.523441 -0.039545
v -0.487951 -0.490917 0.037992
v -0.448509 -0.435776 -0.080541
v -0.432812 -0.409162 -0.025044
v -0.522616 -0.514399 -0.040844
v -0.505043 -0.481458 0.034691
v -0.463987 -0.426412 -0.082571
v -0.449761 -0.399069 -0.029331
v -0.467670 -0.468200 -0.070862
v -0.486715 -0.495966 -0.054039
v -0.467480 -0.461128 0.018924
v -0.447998 -0.433098 0.001340
v -0.504985 -0.484625 -0.056675
v -0.486293 -0.456622 -0.073585
v -0.467800 -0.421528 -0.003800
v -0.486782 -0.449303 0.014448
v -0.502821 -0.516340 -0.022798
v -0.493354 -0.497945 0.019745
v -0.437634 -0.415099 -0.040179
v -0.446477 -0.428921 -0.067536
v -0.456543 -0.402779 -0.044294
v -0.463221 -0.416165 -0.071089
v -0.512442 -0.486617 0.016575
v -0.520974 -0.505342 -0.026696
v -0.475929 -0.425415 -0.020632
v -0.484947 -0.445135 -0.059339
v -0.495396 -0.453522 -0.003152
v -0.504748 -0.474059 -0.043507
v -0.473128 -0.468631 0.001123
v -0.485333 -0.489053 -0.038751
v -0.453832 -0.440408 -0.016373
v -0.465992 -0.460736 -0.056060
v -0.502409 -0.496235 0.016134
v -0.486926 -0.502038 0.014794
v -0.511583 -0.520157 0.028562
v -0.496100 -0.525959 0.027221
v -0.497298 -0.487723 0.036291
v -0.481815 -0.493526 0.034951
v -0.506472 -0.511645 0.048719
v -0.490989 -0.517448 0.047378
v -0.510912 -0.521172 -0.039903
v -0.496245 -0.529622 -0.039824
v -0.523798 -0.542449 -0.027930
v -0.509131 -0.550899 -0.027851
v -0.500762 -0.497243 0.015605
v -0.485839 -0.506025 0.015037
v -0.513649 -0.518520 0.027578
v -0.498725 -0.527302 0.027010
v -0.510406 -0.522459 0.028262
v -0.494851 -0.524891 0.025547
v -0.513652 -0.548643 0.040839
v -0.498096 -0.551075 0.038123
v -0.505322 -0.513456 0.048318
v -0.489766 -0.515888 0.045602
v -0.508567 -0.539640 0.060895
v -0.493012 -0.542072 0.058179
v -0.521872 -0.545292 -0.028445
v -0.506690 -0.550303 -0.029726
v -0.529287 -0.569398 -0.014418
v -0.514099 -0.574414 -0.015719
v -0.511701 -0.521468 0.027314
v -0.496276 -0.526722 0.025353
v -0.519405 -0.546250 0.039755
v -0.503981 -0.551504 0.037794
v -0.512544 -0.551283 0.040873
v -0.497338 -0.549344 0.036878
v -0.506023 -0.576817 0.053731
v -0.493136 -0.575173 0.050346
v -0.508317 -0.541633 0.060956
v -0.493111 -0.539694 0.056961
v -0.502441 -0.568639 0.070752
v -0.489553 -0.566995 0.067367
v -0.527354 -0.571425 -0.013952
v -0.512064 -0.573701 -0.016233
v -0.528562 -0.594200 0.006750
v -0.513239 -0.596503 0.004365
v -0.517886 -0.548125 0.039640
v -0.502381 -0.550578 0.036686
v -0.520561 -0.574512 0.052034
v -0.505056 -0.576964 0.049081
v -0.471529 -0.431958 0.003478
v -0.456693 -0.441606 0.006187
v -0.482815 -0.451563 0.016701
v -0.468636 -0.459086 0.017830
v -0.462458 -0.422868 -0.002601
v -0.448941 -0.431006 0.000558
v -0.471138 -0.431734 0.027293
v -0.457201 -0.439733 0.028118
v -0.482936 -0.452919 0.020761
v -0.468195 -0.458389 0.016873
v -0.472067 -0.433057 0.030047
v -0.457450 -0.438498 0.026089
v -0.462490 -0.474977 0.041497
v -0.477218 -0.470713 0.046653
v -0.466688 -0.450996 0.057346
v -0.452077 -0.455216 0.052092
v -0.477239 -0.471450 0.047534
v -0.463184 -0.473793 0.040125
v -0.466646 -0.452200 0.058821
v -0.452687 -0.454556 0.051387
v -0.447214 -0.490992 0.057381
v -0.459226 -0.489549 0.063882
v -0.450425 -0.473951 0.074922
v -0.438526 -0.475353 0.068359
vn 0.0964 0.4604 0.8825
vn -0.1292 -0.3383 -0.9321
vn -0.2973 -0.9025 -0.3116
vn -0.4392 -0.8553 -0.2749
vn -0.8441 -0.3314 -0.4216
vn -0.7819 0.3832 -0.4917
vn -0.8741 -0.1613 -0.4582
vn -0.1393 0.1293 0.9818
vn 0.0201 0.0632 0.9978
vn 0.3681 -0.5881 -0.7202
vn -0.0272 0.3486 0.9369
vn -0.3750 0.3365 0.8638
vn -0.9407 0.2756 0.1976
vn -0.9557 0.2027 -0.2133
vn -0.4086 0.0210 -0.9125
vn -0.2023 -0.0372 -0.9786
vn -0.4698 0.0120 -0.8827
vn -0.3063 0.0999 0.9467
vn 0.0496 -0.5250 -0.8496
vn -0.1458 0.4329 0.8896
vn -0.2435 0.1327 0.9608
vn 0.1508 0.0866 0.9848
vn -0.1951 -0.0039 -0.9808
vn -0.1586 -0.0086 -0.9873
vn -0.1287 0.0909 -0.9875
vn -0.2440 0.3999 -0.8835
vn -0.0069 0.2892 -0.9572
vn 0.3038 0.2078 -0.9298
vn -0.4550 0.0714 -0.8876
vn -0.5892 -0.0046 -0.8080
vn -0.5562 0.0090 -0.8310
vn 0.4111 -0.2086 0.8874
vn 0.3872 0.0749 0.9189
vn 0.2598 0.4713 0.8428
vn 0.2260 0.6068 0.7620
vn 0.4821 0.5179 0.7067
vn 0.3458 0.7628 0.5463
vn 0.7183 0.5763 0.3898
vn -0.3304 -0.8523 -0.4055
vn 0.5733 0.8165 0.0677
vn 0.3945 0.6464 -0.6531
vn 0.1095 0.4710 -0.8753
vn -0.0652 -0.3645 0.9289
vn 0.0975 -0.3275 0.9398
vn -0.1338 -0.5977 0.7905
vn -0.1364 -0.7365 0.6625
vn -0.5816 -0.8124 -0.0421
vn -0.3696 -0.9268 0.0669
vn -0.4473 -0.8841 0.1350
vn -0.2219 -0.5593 0.7987
vn -0.1036 -0.4333 0.8953
vn -0.2619 0.1207 0.9575
vn 0.4555 -0.5559 -0.6954
vn 0.4111 -0.3161 -0.8550
vn -0.0784 0.3138 0.9463
vn -0.1340 -0.0842 0.9874
vn -0.0852 -0.2602 0.9618
vn 0.0655 -0.4054 0.9118
vn 0.2605 -0.1440 0.9547
vn -0.2211 -0.4094 0.8852
vn -0.1180 -0.1878 0.9751
vn -0.4258 -0.1430 0.8934
vn -0.3430 0.2945 0.8920
vn -0.9271 0.2622 0.2680
vn -0.9521 -0.0264 0.3046
vn -0.6675 -0.2984 0.6821
vn -0.2574 -0.3940 0.8823
vn -0.2152 -0.0047 0.9766
vn 0.3671 0.1028 0.9245
vn 0.4438 0.5506 0.7071
vn 0.4349 0.5901 0.6802
vn 0.7310 0.4872 0.4778
vn 0.7533 0.6516 -0.0886
vn 0.9525 0.2706 -0.1397
vn -0.2359 -0.0072 -0.9717
vn -0.8915 -0.2416 -0.3833
vn -0.9572 -0.0420 -0.2865
vn -0.9783 0.0537 -0.2001
vn -0.9725 0.1278 -0.1948
vn -0.9667 -0.1131 0.2296
vn -0.7018 -0.4937 0.5136
vn -0.7999 -0.1022 0.5914
vn -0.2447 0.3914 0.8871
vn -0.9433 0.1436 0.2992
vn -0.9088 -0.4008 0.1162
vn -0.9812 -0.1771 0.0770
vn -0.8988 -0.1802 -0.3997
vn -0.3466 0.2319 -0.9089
vn -0.2884 0.0934 -0.9529
vn 0.4825 0.1867 -0.8557
vn 0.9632 0.1851 -0.1951
vn 0.6613 0.1300 0.7388
vn 0.0078 0.0257 0.9996
vn -0.6295 -0.1150 0.7684
vn -0.9844 -0.0296 0.1735
vn -0.9400 -0.0532 -0.3371
vn -0.9369 0.1250 -0.3266
vn -0.9767 0.0309 0.2126
vn -0.7447 0.0438 0.6660
vn 0.1348 0.1343 0.9817
vn 0.6670 0.1718 0.7250
vn 0.4630 0.2210 -0.8584
vn -0.3969 0.1963 -0.8966
vn -0.8742 0.1458 -0.4631
vn -0.9807 0.0664 0.1837
vn 0.5631 0.4559 0.6893
vn 0.3375 0.3773 0.8624
vn 0.7203 0.2366 0.6521
vn 0.9226 -0.2087 0.3244
vn 0.9402 -0.1808 0.2887
vn 0.9782 -0.2002 -0.0543
vn 0.9560 -0.2852 -0.0692
vn 0.9327 -0.2786 0.2290
vn 0.4981 0.0879 0.8627
vn 0.1133 -0.0043 -0.9935
vn 0.0622 0.1245 -0.9903
vn -0.7604 -0.4289 -0.4876
vn -0.8637 -0.3278 0.3829
vn -0.8424 -0.2704 0.4661
vn -0.4736 -0.0836 0.8767
vn -0.4332 0.0729 0.8984
vn 0.1795 -0.6567 -0.7325
vn 0.0796 -0.9580 -0.2756
vn 0.9091 -0.3653 -0.2001
vn 0.9474 -0.2560 -0.1923
vn -0.5263 -0.4432 -0.7256
vn -0.2099 -0.0844 0.9741
vn -0.7959 -0.3806 0.4709
vn 0.8426 -0.4993 0.2018
vn -0.7100 -0.3798 0.5930
vn -0.7108 -0.3799 0.5920
vn -0.7109 -0.3799 0.5918
vn -0.7941 -0.5958 -0.1198
vn -0.8897 -0.4214 -0.1758
vn -0.7117 -0.3800 0.5908
vn -0.4851 -0.5930 -0.6427
vn -0.7103 -0.5813 0.3970
vn -0.2841 -0.3231 0.9027
vn -0.7118 -0.3310 -0.6195
vn -0.4094 -0.5494 -0.7284
vn -0.8184 -0.5397 -0.1974
vn -0.7462 -0.2957 0.5964
vn 0.3360 -0.1844 -0.9236
vn -0.3853 -0.5924 -0.7076
vn -0.8301 -0.4182 0.3689
vn -0.5086 0.0041 0.8610
vn -0.7434 -0.0463 0.6673
vn -0.0964 -0.5789 -0.8096
vn -0.6911 -0.6810 -0.2423
vn -0.8064 -0.4763 0.3504
vn 0.6159 0.0278 -0.7873
vn -0.2814 -0.5444 -0.7903
vn -0.8951 -0.4238 0.1386
vn -0.7230 -0.0189 0.6906
vn 0.2713 -0.0459 0.9614
vn 0.7564 0.0891 0.6480
vn 0.9493 0.2147 -0.2295
vn 0.4317 0.1968 -0.8803
vn 0.9475 0.1503 -0.2823
vn 0.8412 0.1039 0.5306
vn 0.3069 0.0073 0.9517
vn -0.7884 0.0124 0.6151
vn -0.9856 -0.0133 0.1686
vn -0.9835 -0.1686 0.0650
vn -0.9978 -0.0566 0.0333
vn -0.9373 0.0213 -0.3478
vn -0.9375 0.1342 -0.3209
vn -0.8700 -0.0278 -0.4923
vn -0.4993 0.0458 -0.8652
vn 0.4945 0.1501 -0.8561
vn 0.9179 0.2056 -0.3395
vn 0.9217 0.1979 -0.3336
vn 0.9216 0.1980 -0.3337
vn 0.9219 0.1976 -0.3334
vn 0.8676 0.0586 0.4939
vn 0.8890 -0.0212 0.4574
vn 0.3163 -0.0497 0.9473
vn -0.7859 -0.1394 0.6024
vn -0.6679 -0.4112 0.6204
vn 0.3036 -0.3047 0.9028
vn 0.8851 0.1872 0.4260
vn 0.8802 0.3382 -0.3331
vn 0.4716 0.4186 -0.7761
vn -0.5396 0.3304 -0.7744
vn -0.8773 0.2016 -0.4355
vn -0.9893 -0.1439 -0.0236
vn -0.9801 -0.1455 -0.1353
vn -0.7571 -0.0237 -0.6528
vn -0.3995 0.0868 -0.9126
vn 0.4847 0.2160 -0.8476
vn 0.8262 0.1604 -0.5400
vn 0.9652 -0.0035 0.2614
vn -0.4253 0.2598 0.8669
vn 0.4834 0.0742 0.8723
vn 0.9481 -0.0716 0.3096
vn 0.9852 -0.1290 -0.1125
vn 0.4967 -0.0933 -0.8629
vn -0.3702 -0.0475 -0.9277
vn -0.9510 -0.0988 -0.2929
vn -0.9411 0.0024 0.3383
vn 0.5366 0.0594 -0.8417
vn -0.3697 0.0440 -0.9281
vn -0.8043 0.0634 -0.5909
vn -0.9856 0.1069 -0.1312
vn -0.9858 0.1231 0.1143
vn -0.6511 0.1535 0.7433
vn -0.6020 -0.0883 0.7936
vn 0.2608 -0.0616 0.9634
vn 0.9334 -0.0095 0.3588
vn 0.2982 0.1506 0.9426
vn -0.6403 0.2110 0.7386
vn 0.3465 0.2235 0.9110
vn 0.8838 0.1562 0.4411
vn 0.9615 0.1417 0.2354
vn 0.8275 0.0889 -0.5544
vn -0.9380 0.1863 0.2922
vn -0.3023 0.6539 0.6936
vn 0.4553 0.7153 0.5302
vn 0.9256 0.3340 0.1783
vn -0.9689 0.1533 -0.1944
vn 0.3950 0.3477 -0.8503
vn -0.4835 0.2734 -0.8316
vn -0.9283 0.3296 0.1719
vn -0.3577 0.8178 0.4509
vn 0.3762 0.8127 0.4450
vn 0.9294 0.3519 0.1112
vn -0.8509 0.4874 -0.1962
vn -0.8716 0.4780 0.1084
vn -0.9819 0.1851 -0.0400
vn -0.9995 0.0263 -0.0186
vn -0.9972 -0.0559 -0.0497
vn -0.5865 -0.2359 -0.7748
vn 0.9261 0.2876 -0.2443
vn 0.3440 -0.2005 -0.9173
vn 0.9755 -0.0579 -0.2121
vn 0.5643 0.8234 0.0596
vn 0.7190 0.6823 0.1323
vn 0.9767 0.0156 -0.2138
vn 0.9792 -0.0861 -0.1840
vn 0.5827 0.8033 0.1234
vn 0.3787 0.8966 0.2297
vn -0.3494 0.9277 0.1312
vn -0.6473 0.0223 0.7619
vn -0.9863 0.1645 0.0082
vn 0.5601 -0.0177 0.8283
vn 0.9780 0.0513 0.2022
vn -0.0087 -0.9991 0.0421
vn 0.0371 -0.9984 0.0426
vn 0.0597 -0.9943 -0.0885
vn -0.0896 -0.9911 -0.0988
vn 0.1048 -0.9928 -0.0575
vn -0.0995 -0.9950 0.0001
vn 0.0528 -0.9986 0.0066
vn -0.0062 -1.0000 0.0022
vn 0.1242 -0.2424 0.9622
vn 0.5313 -0.2051 0.8220
vn 0.8588 -0.3392 0.3839
vn 0.6528 -0.3151 -0.6889
vn 0.0786 0.9470 -0.3116
vn 0.6031 0.5977 -0.5283
vn 0.6706 0.3612 -0.6479
vn 0.7057 -0.0208 -0.7082
vn 0.6377 -0.3167 -0.7022
vn 0.8562 0.2441 0.4553
vn 0.8965 -0.0696 0.4374
vn 0.8983 0.0551 0.4359
vn 0.8755 -0.3157 0.3659
vn 0.4574 0.0646 0.8869
vn 0.4781 -0.1654 0.8626
vn 0.4494 0.2820 0.8477
vn 0.5119 -0.3605 0.7797
vn 0.1727 -0.3701 -0.9128
vn 0.2029 0.0288 -0.9788
vn 0.1850 0.4796 -0.8577
vn 0.1976 -0.3103 -0.9299
vn 0.1621 0.6793 -0.7157
vn -0.0039 -0.9729 -0.2311
vn -0.0000 -0.9729 -0.2311
vn 0.6766 0.5920 0.4379
vn 0.8115 -0.2764 -0.5149
vn 0.8615 -0.0689 -0.5031
vn 0.8481 0.2235 -0.4803
vn 0.7604 0.5483 -0.3481
vn 0.7827 -0.3654 -0.5038
vn 0.9968 -0.0549 0.0587
vn 0.9705 -0.2402 -0.0197
vn 0.9224 -0.3607 -0.1384
vn 0.9168 0.3712 0.1472
vn 0.9959 -0.0214 0.0884
vn 0.4123 0.8459 -0.3382
vn 0.6146 0.7743 -0.1508
vn 0.2943 0.9506 -0.0983
vn 0.3033 0.9429 0.1373
vn 0.2652 0.7211 0.6400
vn 0.0968 0.9584 0.2685
vn 0.0630 0.9879 -0.1419
vn 0.7347 0.6737 0.0800
vn -0.4557 0.8826 -0.1160
vn -0.1577 0.9860 -0.0545
vn -0.2048 -0.0003 0.9788
vn 0.9633 -0.2167 -0.1583
vn 0.9191 0.0698 -0.3878
vn -0.7507 -0.1002 0.6530
vn 0.9200 0.1698 -0.3531
vn -0.3334 0.0259 -0.9424
vn 0.9961 -0.0312 0.0822
vn -0.1349 -0.3185 0.9383
vn -0.7581 0.0737 -0.6480
vn -0.6910 -0.2372 0.6828
vn -0.5739 0.6992 -0.4264
vn -0.8240 -0.5652 -0.0394
vn -0.5479 0.7119 -0.4394
vn 0.7998 0.5620 0.2110
vn 0.5065 -0.7480 0.4290
vn 0.1261 -0.4032 -0.9064
vn -0.1000 0.4878 0.8672
vn -0.2046 0.6612 0.7218
vn -0.0846 0.4964 0.8639
vn 0.0298 -0.2673 -0.9632
vn 0.1439 -0.4390 -0.8869
vn 0.6775 0.7210 0.1455
vn 0.7385 0.6413 0.2082
vn -0.8178 -0.5752 -0.0189
vn -0.8171 -0.5762 -0.0210
vn -0.8163 -0.5772 -0.0232
vn -0.8560 -0.4949 0.1494
vn -0.8332 -0.5523 0.0277
vn -0.8691 -0.4748 0.1384
vn -0.8410 -0.5401 0.0332
vn 0.8620 0.4181 -0.2865
vn 0.8416 0.5347 -0.0767
vn 0.8076 0.4815 -0.3405
vn 0.8101 0.5781 -0.0981
vn 0.4767 -0.7604 0.4411
vn 0.5230 -0.7368 0.4284
vn 0.8983 0.3838 -0.2139
vn 0.8928 0.4499 -0.0203
vn -0.5424 0.6584 -0.5218
vn -0.5688 0.6579 -0.4936
vn -0.8678 -0.4793 0.1310
vn -0.8489 -0.5286 0.0033
vn -0.2207 0.3816 0.8976
vn -0.2832 0.8557 -0.4331
vn 0.2207 -0.3816 -0.8976
vn 0.2832 -0.8557 0.4331
vn -0.9190 -0.3883 -0.0690
vn 0.9190 0.3883 0.0690
vn -0.2130 0.3780 0.9010
vn -0.4509 0.7862 -0.4225
vn 0.2452 -0.3584 -0.9008
vn 0.4509 -0.7862 0.4225
vn -0.8674 -0.4946 0.0546
vn 0.8664 0.4969 -0.0494
vn -0.2180 0.4005 0.8900
vn -0.0675 0.9037 -0.4228
vn 0.2180 -0.4005 -0.8900
vn 0.0675 -0.9037 0.4228
vn -0.9679 -0.1957 -0.1576
vn 0.9679 0.1957 0.1576
vn -0.2191 0.4392 0.8713
vn -0.2482 0.8731 -0.4195
vn 0.2414 -0.3744 -0.8953
vn 0.2483 -0.8731 0.4195
vn -0.9485 -0.3143 -0.0387
vn 0.9476 0.3165 0.0437
vn -0.1659 0.4770 0.8631
vn 0.2157 0.8971 -0.3856
vn 0.1914 -0.3712 -0.9086
vn -0.2157 -0.8971 0.3856
vn -0.9594 0.1154 -0.2574
vn 0.9736 -0.0412 0.2247
vn -0.2086 0.6507 0.7301
vn -0.0695 0.9099 -0.4091
vn 0.2318 -0.3942 -0.8893
vn 0.0701 -0.9098 0.4091
vn -0.9827 -0.1505 -0.1082
vn 0.9818 0.1526 0.1130
vn -0.1668 0.4749 0.8641
vn -0.2491 0.3369 -0.9080
vn 0.4279 -0.8212 -0.3776
vn -0.0962 0.4468 0.8895
vn -0.8131 -0.5821 -0.0079
vn 0.8355 0.5455 -0.0659
vn -0.0698 -0.4519 0.8894
vn 0.1443 0.5279 -0.8370
vn -0.4017 0.7968 0.4514
vn 0.4038 -0.8021 -0.4400
vn -0.8811 -0.2865 -0.3763
vn 0.8819 0.2816 0.3782
vn -0.2946 -0.5981 0.7453
vn 0.3002 0.6561 -0.6924
vn -0.3677 0.8021 0.4707
vn 0.4068 -0.7238 -0.5574
vn -0.7159 0.0479 -0.6965
vn 0.7533 -0.0050 0.6576
vn -0.0964 0.4604 0.8825
vn 0.1292 -0.3383 -0.9321
vn 0.2973 -0.9025 -0.3116
vn 0.4392 -0.8553 -0.2749
vn 0.8441 -0.3314 -0.4216
vn 0.7819 0.3832 -0.4917
vn 0.8741 -0.1613 -0.4582
vn 0.1393 0.1293 0.9818
vn -0.0201 0.0632 0.9978
vn -0.3681 -0.5881 -0.7202
vn 0.0272 0.3486 0.9369
vn 0.3750 0.3365 0.8638
vn 0.9407 0.2756 0.1976
vn 0.9557 0.2027 -0.2133
vn 0.4086 0.0210 -0.9125
vn 0.2023 -0.0372 -0.9786
vn 0.4698 0.0120 -0.8827
vn 0.3063 0.0999 0.9467
vn -0.0496 -0.5250 -0.8496
vn 0.1458 0.4329 0.8896
vn 0.2435 0.1327 0.9608
vn -0.1508 0.0866 0.9848
vn 0.1951 -0.0039 -0.9808
vn 0.1586 -0.0086 -0.9873
vn 0.1287 0.0909 -0.9875
vn 0.2440 0.3999 -0.8835
vn 0.0069 0.2892 -0.9572
vn -0.3038 0.2078 -0.9298
vn 0.4550 0.0714 -0.8876
vn 0.5892 -0.0046 -0.8080
vn 0.5562 0.0090 -0.8310
vn -0.4111 -0.2086 0.8874
vn -0.3872 0.0749 0.9189
vn -0.2598 0.4713 0.8428
vn -0.2260 0.6068 0.7620
vn -0.4821 0.5179 0.7067
vn -0.3458 0.7628 0.5463
vn -0.7183 0.5763 0.3898
vn 0.3304 -0.8523 -0.4055
vn -0.5733 0.8165 0.0677
vn -0.3945 0.6464 -0.6531
vn -0.1095 0.4710 -0.8753
vn 0.0652 -0.3645 0.9289
vn -0.0975 -0.3275 0.9398
vn 0.1338 -0.5977 0.7905
vn 0.1364 -0.7365 0.6625
vn 0.5816 -0.8124 -0.0421
vn 0.3696 -0.9268 0.0669
vn 0.4473 -0.8841 0.1350
vn 0.2219 -0.5593 0.7987
vn 0.1036 -0.4333 0.8953
vn 0.2619 0.1207 0.9575
vn -0.4555 -0.5559 -0.6954
vn -0.4111 -0.3161 -0.8550
vn 0.0784 0.3138 0.9463
vn 0.1340 -0.0842 0.9874
vn 0.0852 -0.2602 0.9618
vn -0.0655 -0.4054 0.9118
vn -0.2605 -0.1440 0.9547
vn 0.2211 -0.4094 0.8852
vn 0.1180 -0.1878 0.9751
vn 0.4258 -0.1430 0.8934
vn 0.3430 0.2945 0.8920
vn 0.9271 0.2622 0.2680
vn 0.9521 -0.0264 0.3046
vn 0.6675 -0.2984 0.6821
vn 0.2574 -0.3940 0.8823
vn 0.2152 -0.0047 0.9766
vn -0.3671 0.1028 0.9245
vn -0.4438 0.5506 0.7071
vn -0.4349 0.5901 0.6802
vn -0.7310 0.4872 0.4778
vn -0.7533 0.6516 -0.0886
vn -0.9525 0.2706 -0.1397
vn 0.2359 -0.0072 -0.9717
vn 0.8915 -0.2416 -0.3833
vn 0.9572 -0.0420 -0.2865
vn 0.9783 0.0537 -0.2001
vn 0.9725 0.1278 -0.1948
vn 0.9667 -0.1131 0.2296
vn 0.7018 -0.4937 0.5136
vn 0.7999 -0.1022 0.5914
vn 0.2447 0.3914 0.8871
vn 0.9433 0.1436 0.2992
vn 0.9088 -0.4008 0.1162
vn 0.9812 -0.1771 0.0770
vn 0.8988 -0.1802 -0.3997
vn 0.3466 0.2319 -0.9089
vn 0.2884 0.0934 -0.9529
vn -0.4825 0.1867 -0.8557
vn -0.9632 0.1851 -0.1951
vn -0.6613 0.1300 0.7388
vn -0.0078 0.0257 0.9996
vn 0.6295 -0.1150 0.7684
vn 0.9844 -0.0296 0.1735
vn 0.9400 -0.0532 -0.3371
vn 0.9369 0.1250 -0.3266
vn 0.9767 0.0309 0.2126
vn 0.7447 0.0438 0.6660
vn -0.1348 0.1343 0.9817
vn -0.6670 0.1718 0.7250
vn -0.4630 0.2210 -0.8584
vn 0.3969 0.1963 -0.8966
vn 0.8742 0.1458 -0.4631
vn 0.9807 0.0664 0.1837
vn -0.5631 0.4559 0.6893
vn -0.3375 0.3773 0.8624
vn -0.7203 0.2366 0.6521
vn -0.9226 -0.2087 0.3244
vn -0.9402 -0.1808 0.2887
vn -0.9782 -0.2002 -0.0543
vn -0.9560 -0.2852 -0.0692
vn -0.9327 -0.2786 0.2290
vn -0.4981 0.0879 0.8627
vn -0.1133 -0.0043 -0.9935
vn -0.0622 0.1245 -0.9903
vn 0.7604 -0.4289 -0.4876
vn 0.8637 -0.3278 0.3829
vn 0.8424 -0.2704 0.4661
vn 0.4736 -0.0836 0.8767
vn 0.4332 0.0729 0.8984
vn -0.1795 -0.6567 -0.7325
vn -0.0796 -0.9580 -0.2756
vn -0.9091 -0.3653 -0.2001
vn -0.9474 -0.2560 -0.1923
vn 0.5263 -0.4432 -0.7256
vn 0.2099 -0.0844 0.9741
vn 0.7959 -0.3806 0.4709
vn -0.8426 -0.4993 0.2018
vn 0.7100 -0.3798 0.5930
vn 0.7109 -0.3799 0.5918
vn 0.7108 -0.3799 0.5920
vn 0.7941 -0.5958 -0.1198
vn 0.8897 -0.4214 -0.1758
vn 0.7117 -0.3800 0.5908
vn 0.4851 -0.5930 -0.6427
vn 0.7103 -0.5813 0.3970
vn 0.2841 -0.3231 0.9027
vn 0.7118 -0.3310 -0.6195
vn 0.4094 -0.5494 -0.7284
vn 0.8184 -0.5397 -0.1974
vn 0.7462 -0.2957 0.5964
vn -0.3360 -0.1844 -0.9236
vn 0.3853 -0.5924 -0.7076
vn 0.8301 -0.4182 0.3689
vn 0.5086 0.0041 0.8610
vn 0.7434 -0.0463 0.6673
vn 0.0964 -0.5789 -0.8096
vn 0.6911 -0.6810 -0.2423
vn 0.8064 -0.4763 0.3504
vn -0.6159 0.0278 -0.7873
vn 0.2814 -0.5444 -0.7903
vn 0.8951 -0.4238 0.1386
vn 0.7230 -0.0189 0.6906
vn -0.2713 -0.0459 0.9614
vn -0.7564 0.0891 0.6480
vn -0.9493 0.2147 -0.2295
vn -0.4317 0.1968 -0.8803
vn -0.9475 0.1503 -0.2823
vn -0.8412 0.1039 0.5306
vn -0.3069 0.0073 0.9517
vn 0.7884 0.0124 0.6151
vn 0.9856 -0.0133 0.1686
vn 0.9835 -0.1686 0.0650
vn 0.9978 -0.0566 0.0333
vn 0.9373 0.0213 -0.3478
vn 0.9375 0.1342 -0.3209
vn 0.8700 -0.0278 -0.4923
vn 0.4993 0.0458 -0.8652
vn -0.4945 0.1501 -0.8561
vn -0.9179 0.2056 -0.3395
vn -0.9216 0.1980 -0.3337
vn -0.9217 0.1979 -0.3336
vn -0.9219 0.1976 -0.3334
vn -0.8676 0.0586 0.4939
vn -0.8890 -0.0212 0.4574
vn -0.3163 -0.0497 0.9473
vn 0.7859 -0.1394 0.6024
vn 0.6679 -0.4112 0.6204
vn -0.3036 -0.3047 0.9028
vn -0.8851 0.1872 0.4260
vn -0.8802 0.3382 -0.3331
vn -0.4716 0.4186 -0.7761
vn 0.5396 0.3304 -0.7744
vn 0.8773 0.2016 -0.4355
vn 0.9893 -0.1439 -0.0236
vn 0.9801 -0.1455 -0.1353
vn 0.7571 -0.0237 -0.6528
vn 0.3995 0.0868 -0.9126
vn -0.4847 0.2160 -0.8476
vn -0.8262 0.1604 -0.5400
vn -0.9652 -0.0035 0.2614
vn 0.4253 0.2598 0.8669
vn -0.4834 0.0742 0.8723
vn -0.9481 -0.0716 0.3096
vn -0.9852 -0.1290 -0.1125
vn -0.4967 -0.0933 -0.8629
vn 0.3702 -0.0475 -0.9277
vn 0.9510 -0.0988 -0.2929
vn 0.9411 0.0024 0.3383
vn -0.5366 0.0594 -0.8417
vn 0.3697 0.0440 -0.9281
vn 0.8043 0.0634 -0.5909
vn 0.9856 0.1069 -0.1312
vn 0.9858 0.1231 0.1143
vn 0.6511 0.1535 0.7433
vn 0.6020 -0.0883 0.7936
vn -0.2608 -0.0616 0.9634
vn -0.9334 -0.0095 0.3588
vn -0.2982 0.1506 0.9426
vn 0.6403 0.2110 0.7386
vn -0.3465 0.2235 0.9110
vn -0.8838 0.1562 0.4411
vn -0.9615 0.1417 0.2354
vn -0.8275 0.0889 -0.5544
vn 0.9380 0.1863 0.2922
vn 0.3023 0.6539 0.6936
vn -0.4553 0.7153 0.5302
vn -0.9256 0.3340 0.1783
vn 0.9689 0.1533 -0.1944
vn -0.3950 0.3477 -0.8503
vn 0.4835 0.2734 -0.8316
vn 0.9283 0.3296 0.1719
vn 0.3577 0.8178 0.4509
vn -0.3762 0.8127 0.4450
vn -0.9294 0.3519 0.1112
vn 0.8509 0.4874 -0.1962
vn 0.8716 0.4780 0.1084
vn 0.9819 0.1851 -0.0400
vn 0.9995 0.0263 -0.0186
vn 0.9972 -0.0559 -0.0497
vn 0.5865 -0.2359 -0.7748
vn -0.9261 0.2876 -0.2443
vn -0.3440 -0.2005 -0.9173
vn -0.9755 -0.0579 -0.2121
vn -0.5643 0.8234 0.0596
vn -0.7190 0.6823 0.1323
vn -0.9767 0.0156 -0.2138
vn -0.9792 -0.0861 -0.1840
vn -0.5827 0.8033 0.1234
vn -0.3787 0.8966 0.2297
vn 0.3494 0.9277 0.1312
vn 0.6473 0.0223 0.7619
vn 0.9863 0.1645 0.0082
vn -0.5601 -0.0177 0.8283
vn -0.9780 0.0513 0.2022
vn 0.0087 -0.9991 0.0421
vn -0.0371 -0.9984 0.0426
vn -0.0597 -0.9943 -0.0885
vn 0.0896 -0.9911 -0.0988
vn -0.1048 -0.9928 -0.0575
vn 0.0995 -0.9950 0.0001
vn -0.0528 -0.9986 0.0066
vn 0.0062 -1.0000 0.0022
vn -0.1242 -0.2424 0.9622
vn -0.5313 -0.2051 0.8220
vn -0.8588 -0.3392 0.3839
vn -0.6528 -0.3151 -0.6889
vn -0.0786 0.9470 -0.3116
vn -0.6031 0.5977 -0.5283
vn -0.6706 0.3612 -0.6479
vn -0.7057 -0.0208 -0.7082
vn -0.6377 -0.3167 -0.7022
vn -0.8562 0.2441 0.4553
vn -0.8965 -0.0696 0.4374
vn -0.8983 0.0551 0.4359
vn -0.8755 -0.3157 0.3659
vn -0.4574 0.0646 0.8869
vn -0.4781 -0.1654 0.8626
vn -0.4494 0.2820 0.8477
vn -0.5119 -0.3605 0.7797
vn -0.1727 -0.3701 -0.9128
vn -0.2029 0.0288 -0.9788
vn -0.1850 0.4796 -0.8577
vn -0.1976 -0.3103 -0.9299
vn -0.1621 0.6793 -0.7157
vn 0.0039 -0.9729 -0.2311
vn -0.6766 0.5920 0.4379
vn -0.8115 -0.2764 -0.5149
vn -0.8615 -0.0689 -0.5031
vn -0.8482 0.2235 -0.4803
vn -0.7604 0.5483 -0.3481
vn -0.7827 -0.3654 -0.5038
vn -0.9968 -0.0549 0.0587
vn -0.9705 -0.2402 -0.0197
vn -0.9224 -0.3607 -0.1384
vn -0.9168 0.3712 0.1472
vn -0.9959 -0.0214 0.0884
vn -0.4123 0.8459 -0.3383
vn -0.6146 0.7743 -0.1508
vn -0.2943 0.9506 -0.0983
vn -0.3033 0.9429 0.1373
vn -0.2652 0.7211 0.6400
vn -0.0968 0.9584 0.2685
vn -0.0630 0.9879 -0.1419
vn -0.7347 0.6737 0.0800
vn 0.4557 0.8826 -0.1160
vn 0.1577 0.9860 -0.0545
vn 0.2048 -0.0003 0.9788
vn -0.9633 -0.2167 -0.1583
vn -0.9191 0.0698 -0.3878
vn 0.7507 -0.1002 0.6530
vn -0.9200 0.1698 -0.3531
vn 0.3334 0.0259 -0.9424
vn -0.9961 -0.0312 0.0822
vn 0.1349 -0.3185 0.9383
vn 0.7581 0.0737 -0.6480
vn 0.6910 -0.2372 0.6828
vn 0.5739 0.6992 -0.4264
vn 0.8240 -0.5652 -0.0394
vn 0.5479 0.7119 -0.4394
vn -0.7998 0.5620 0.2110
vn -0.5065 -0.7480 0.4290
vn -0.1261 -0.4032 -0.9064
vn 0.1000 0.4878 0.8672
vn 0.2046 0.6612 0.7218
vn 0.0846 0.4964 0.8639
vn -0.0298 -0.2673 -0.9632
vn -0.1439 -0.4390 -0.8869
vn -0.6775 0.7210 0.1455
vn -0.7385 0.6413 0.2082
vn 0.8178 -0.5752 -0.0189
vn 0.8171 -0.5762 -0.0210
vn 0.8163 -0.5772 -0.0232
vn 0.8560 -0.4949 0.1494
vn 0.8332 -0.5523 0.0277
vn 0.8691 -0.4748 0.1384
vn 0.8410 -0.5401 0.0332
vn -0.8620 0.4181 -0.2865
vn -0.8416 0.5347 -0.0767
vn -0.8076 0.4815 -0.3405
vn -0.8101 0.5781 -0.0981
vn -0.4767 -0.7604 0.4411
vn -0.5230 -0.7368 0.4284
vn -0.8983 0.3838 -0.2139
vn -0.8928 0.4499 -0.0203
vn 0.5424 0.6584 -0.5218
vn 0.5688 0.6579 -0.4936
vn 0.8678 -0.4793 0.1310
vn 0.8489 -0.5286 0.0033
vn 0.2207 0.3816 0.8976
vn 0.2832 0.8557 -0.4331
vn -0.2207 -0.3816 -0.8976
vn -0.2832 -0.8557 0.4331
vn 0.9190 -0.3883 -0.0690
vn -0.9190 0.3883 0.0690
vn 0.2130 0.3780 0.9010
vn 0.4509 0.7862 -0.4225
vn -0.2452 -0.3584 -0.9008
vn -0.4509 -0.7862 0.4225
vn 0.8674 -0.4946 0.0546
vn -0.8664 0.4969 -0.0494
vn 0.2180 0.4005 0.8900
vn 0.0675 0.9037 -0.4228
vn -0.2180 -0.4005 -0.8900
vn -0.0675 -0.9037 0.4228
vn 0.9679 -0.1957 -0.1576
vn -0.9679 0.1957 0.1576
vn 0.2191 0.4392 0.8713
vn 0.2482 0.8731 -0.4195
vn -0.2414 -0.3744 -0.8953
vn -0.2483 -0.8731 0.4195
vn 0.9485 -0.3143 -0.0387
vn -0.9476 0.3165 0.0437
vn 0.1659 0.4770 0.8631
vn -0.2157 0.8971 -0.3856
vn -0.1914 -0.3712 -0.9086
vn 0.2157 -0.8971 0.3856
vn 0.9594 0.1154 -0.2574
vn -0.9736 -0.0412 0.2247
vn 0.2086 0.6507 0.7301
vn 0.0695 0.9099 -0.4091
vn -0.2318 -0.3942 -0.8893
vn -0.0701 -0.9098 0.4091
vn 0.9827 -0.1505 -0.1082
vn -0.9818 0.1526 0.1130
vn 0.1668 0.4749 0.8641
vn 0.2491 0.3369 -0.9080
vn -0.4279 -0.8212 -0.3776
vn 0.0962 0.4468 0.8895
vn 0.8131 -0.5821 -0.0079
vn -0.8355 0.5455 -0.0659
vn 0.0698 -0.4519 0.8894
vn -0.1443 0.5279 -0.8370
vn 0.4017 0.7968 0.4514
vn -0.4038 -0.8021 -0.4400
vn 0.8811 -0.2865 -0.3763
vn -0.8819 0.2816 0.3782
vn 0.2946 -0.5981 0.7453
vn -0.3002 0.6561 -0.6924
vn 0.3677 0.8021 0.4707
vn -0.4068 -0.7238 -0.5574
vn 0.7159 0.0479 -0.6965
vn -0.7533 -0.0050 0.6576
vt 0.000000 0.000000
vt 1.000000 0.000000
vt 1.000000 1.000000
vt 0.097989 1.000000
vt 0.042556 0.042556
vt 1.000000 0.900000
vt 0.903755 1.000000
vt 0.897899 0.900000
vt 0.772576 1.000000
vt 0.791823 0.900000
vt 0.631606 0.900000
vt 0.629690 1.000000
vt 0.584311 1.000000
vt 0.571679 0.900000
vt 0.750000 0.125878
vt 0.849593 0.126963
vt 0.848965 0.051611
vt 0.750000 0.033767
vt 0.641874 0.500000
vt 0.635621 0.600000
vt 0.568086 0.600000
vt 0.573778 0.500000
vt 0.635925 0.700000
vt 0.571679 0.700000
vt 0.635925 0.800000
vt 0.571679 0.800000
vt 0.880409 0.500000
vt 0.880409 0.600000
vt 0.784316 0.600000
vt 0.776839 0.500000
vt 0.880409 0.700000
vt 0.800122 0.700000
vt 0.880409 0.800000
vt 0.788925 0.800000
vt 1.000000 0.500000
vt 1.000000 0.600000
vt 1.000000 0.700000
vt 1.000000 0.800000
vt 0.500000 0.900000
vt 0.500000 0.800000
vt 0.500000 0.700000
vt 0.500000 0.600000
vt 0.500000 1.000000
vt 0.500000 0.500000
vt 0.378352 0.428189
vt 0.250000 0.490000
vt 0.250000 0.033767
vt 0.363092 0.054159
vt 0.406507 0.101381
vt 0.464658 0.172489
vt 0.462701 0.268880
vt 0.896083 0.324305
vt 0.907080 0.414354
vt 0.963690 0.285502
vt 0.938411 0.262828
vt 0.707302 0.800000
vt 0.707455 0.900000
vt 0.714286 0.700000
vt 0.714286 0.600000
vt 0.714286 0.500000
vt 0.693067 1.000000
vt 0.925896 0.148339
vt 0.918164 0.114061
vt 0.938888 0.222527
vt 0.983983 0.196595
vt 0.881486 0.228028
vt 0.750000 0.490000
vt 0.750000 0.375942
vt 0.750000 0.248637
vt 0.805476 1.000000
vt 0.922146 1.000000
vt 0.456958 0.314996
vt 0.479542 0.216052
vt 0.418164 0.114061
vt 0.641874 1.000000
vt 0.482937 0.201178
vt 0.414749 0.109327
vt 0.859652 1.000000
vt 0.469099 0.261803
vt 0.743443 1.000000
vt 0.638561 1.000000
vt 0.562312 0.166667
vt 0.625000 0.166667
vt 0.625000 0.250000
vt 0.562312 0.250000
vt 0.625000 0.500000
vt 0.562312 0.500000
vt 0.562312 0.666667
vt 0.625000 0.666667
vt 0.625000 0.750000
vt 0.562312 0.750000
vt 0.625000 1.000000
vt 0.562312 1.000000
vt 0.125000 0.665100
vt 0.375000 0.665100
vt 0.375000 0.750000
vt 0.125000 0.750000
vt 0.875000 0.666667
vt 0.875000 0.750000
vt 0.875000 0.500000
vt 0.875000 0.583333
vt 0.625000 0.583333
vt 0.125000 0.500000
vt 0.375000 0.500000
vt 0.375000 0.583333
vt 0.125000 0.583333
vt 0.562312 0.583333
vt 0.562312 0.000000
vt 0.625000 0.000000
vt 0.625000 0.083333
vt 0.562312 0.083333
vt 0.375000 0.084900
vt 0.430607 0.083333
vt 0.430607 0.166667
vt 0.375000 0.166667
vt 0.375000 0.000000
vt 0.430607 0.000000
vt 0.432306 0.583333
vt 0.427473 0.666578
vt 0.430607 0.500000
vt 0.427839 0.750000
vt 0.430607 1.000000
vt 0.375000 1.000000
vt 0.375000 0.250000
vt 0.430607 0.250000
vt 0.433791 0.000000
vt 0.433791 0.250000
vt 0.433791 0.500000
vt 0.433791 0.750000
vt 0.433791 1.000000
vt 0.125413 0.501886
vt 0.125413 0.751886
vt 0.433791 0.250000
vt 0.432076 0.498413
vt 0.432052 0.751563
vt 0.124278 0.500824
vt 0.124278 0.750833
vt 0.625000 0.257110
vt 0.433742 0.257065
vt 0.133032 0.500755
vt 0.867890 0.500000
vt 0.433021 0.013564
vt 0.624381 0.013427
vt 0.625000 0.297531
vt 0.433465 0.297230
vt 0.625000 0.989608
vt 0.433719 0.989673
vt 0.182798 0.500366
vt 0.137071 0.750863
vt 0.827469 0.500000
vt 0.864608 0.750000
vt 0.458194 0.000000
vt 0.458193 0.250000
vt 0.458194 0.500000
vt 0.458194 0.750000
vt 0.458194 1.000000
vt 0.130409 0.501318
vt 0.142517 0.743313
vt 0.458193 0.250000
vt 0.458194 0.500000
vt 0.458193 0.250000
vt 0.458193 0.500000
vt 0.458193 0.250000
vt 0.458194 0.500000
vt 0.458194 0.250000
vt 0.458193 0.500000
s 1
f 1/1/1 2/2/1 4/3/1 3/4/1
f 18/1/2 396/1/2 19/1/2 20/1/2
f 14/1/3 12/1/3 15/1/3 28/1/3
f 13/1/4 14/1/4 28/1/4 29/1/4
f 27/1/5 13/1/5 29/1/5 30/1/5
f 26/1/6 10/1/6 27/1/6 31/1/6
f 32/1/7 31/1/7 27/1/7 30/1/7
f 50/1/8 48/1/8 51/1/8 56/1/8
f 441/1/9 56/1/9 51/1/9 433/1/9
f 50/1/10 37/1/10 57/1/10 56/1/10
f 445/1/11 59/1/11 56/1/11 441/1/11
f 56/1/12 59/1/12 60/1/12 58/1/12
f 23/1/13 58/1/13 60/1/13 61/1/13
f 22/1/14 23/1/14 61/1/14 62/1/14
f 63/1/15 21/1/15 22/1/15 62/1/15
f 450/1/16 401/1/16 21/1/16 63/1/16
f 62/1/17 65/1/17 64/1/17 63/1/17
f 400/1/18 401/1/18 7/1/18
f 18/1/19 3/5/19 395/1/19 396/1/19
f 1/1/20 3/5/20 395/1/20 399/1/20
f 7/1/21 1/1/21 399/1/21 400/1/21
f 2/2/22 1/1/22 7/1/22 8/1/22
f 63/1/23 64/1/23 451/1/23 450/1/23
f 64/1/24 69/1/24 458/1/24 451/1/24
f 459/1/25 458/1/25 69/1/25 82/1/25
f 82/1/26 478/1/26 459/1/26
f 478/1/27 82/1/27 83/1/27 84/1/27
f 84/1/28 83/1/28 112/1/28 113/1/28
f 81/1/29 231/1/29 83/1/29 82/1/29
f 69/1/30 70/1/30 81/1/30 82/1/30
f 65/1/31 70/1/31 69/1/31 64/1/31
f 9/1/32 8/1/32 21/1/32 22/1/32
f 6/1/33 2/2/33 8/1/33 9/1/33
f 2/2/34 6/1/34 5/1/34 4/3/34
f 3/5/35 4/3/35 17/1/35 18/1/35
f 17/1/36 55/1/36 20/1/36 18/1/36
f 4/3/37 5/1/37 16/1/37 17/1/37
f 17/1/38 16/1/38 54/1/38 55/1/38
f 5/1/39 16/1/39 15/1/39 12/1/39
f 16/1/40 45/1/40 53/1/40 54/1/40
f 45/1/41 46/1/41 52/1/41 53/1/41
f 434/1/42 436/1/42 52/1/42 46/1/42
f 433/1/43 51/1/43 46/1/43 434/1/43
f 46/1/44 51/1/44 48/1/44 47/1/44
f 46/1/45 47/1/45 44/1/45
f 45/1/46 46/1/46 44/1/46
f 16/1/47 45/1/47 44/1/47 15/1/47
f 15/1/48 44/1/48 43/1/48 28/1/48
f 28/1/49 43/1/49 42/1/49 29/1/49
f 42/1/50 43/1/50 44/1/50 49/1/50
f 44/1/51 47/1/51 48/1/51 49/1/51
f 48/1/52 50/1/52 38/1/52 49/1/52
f 38/1/53 37/1/53 50/1/53
f 58/1/54 56/1/54 57/1/54
f 445/1/55 457/1/55 68/1/55 59/1/55
f 457/1/56 466/1/56 74/1/56 68/1/56
f 466/1/57 468/1/57 75/1/57 74/1/57
f 468/1/58 470/1/58 76/1/58 75/1/58
f 470/1/59 472/1/59 77/1/59 76/1/59
f 73/1/60 75/1/60 76/1/60 78/1/60
f 73/1/61 68/1/61 74/1/61 75/1/61
f 68/1/62 73/1/62 72/1/62 67/1/62
f 59/1/63 68/1/63 67/1/63 60/1/63
f 60/1/64 67/1/64 66/1/64 61/1/64
f 67/1/65 72/1/65 71/1/65 66/1/65
f 72/1/66 73/1/66 78/1/66 79/1/66
f 77/1/67 93/1/67 78/1/67 76/1/67
f 77/1/68 86/1/68 92/1/68 93/1/68
f 77/1/69 472/1/69 484/1/69 86/1/69
f 484/1/70 483/1/70 86/1/70
f 85/1/71 87/1/71 86/1/71 483/1/71
f 483/1/72 482/1/72 85/1/72
f 85/1/73 482/1/73 478/1/73 84/1/73
f 84/1/74 113/1/74 88/1/74 85/1/74
f 111/1/75 112/1/75 83/1/75 231/1/75
f 81/1/76 80/1/76 95/1/76 231/1/76
f 70/1/77 71/1/77 80/1/77 81/1/77
f 66/1/78 71/1/78 70/1/78 65/1/78
f 61/1/79 66/1/79 65/1/79 62/1/79
f 71/1/80 72/1/80 79/1/80 80/1/80
f 79/1/81 78/1/81 93/1/81 94/1/81
f 93/1/82 92/1/82 94/1/82
f 86/1/83 87/1/83 91/1/83 92/1/83
f 92/1/84 91/1/84 94/1/84
f 80/1/85 79/1/85 94/1/85 95/1/85
f 95/1/86 94/1/86 96/1/86 101/1/86
f 95/1/87 101/1/87 111/1/87 231/1/87
f 110/1/88 116/1/88 115/1/88 109/1/88
f 109/1/89 112/1/89 111/1/89 110/1/89
f 108/1/90 113/1/90 112/1/90 109/1/90
f 88/1/91 113/1/91 108/1/91 89/1/91
f 87/1/92 85/1/92 88/1/92 90/1/92
f 90/1/93 97/1/93 91/1/93 87/1/93
f 91/1/94 97/1/94 96/1/94 94/1/94
f 100/1/95 102/1/95 101/1/95 96/1/95
f 101/1/96 102/1/96 110/1/96 111/1/96
f 103/1/97 116/1/97 110/1/97 102/1/97
f 100/1/98 104/1/98 103/1/98 102/1/98
f 96/1/99 97/1/99 99/1/99 100/1/99
f 97/1/100 90/1/100 98/1/100 99/1/100
f 89/1/101 98/1/101 90/1/101 88/1/101
f 109/1/102 115/1/102 114/1/102 108/1/102
f 115/1/103 116/1/103 117/1/103 118/1/103
f 117/1/104 116/1/104 103/1/104 124/1/104
f 103/1/105 104/1/105 123/1/105 124/1/105
f 5/1/106 6/1/106 11/1/106 12/1/106
f 12/1/107 11/1/107 13/1/107 14/1/107
f 6/1/108 9/1/108 10/1/108 11/1/108
f 10/1/109 9/1/109 24/1/109 25/1/109
f 9/1/110 22/1/110 23/1/110 24/1/110
f 24/1/111 23/1/111 33/1/111
f 25/1/112 24/1/112 33/1/112 34/1/112
f 25/1/113 26/1/113 10/1/113
f 10/1/114 27/1/114 13/1/114 11/1/114
f 26/1/115 31/1/115 203/1/115 209/1/115
f 203/1/116 211/1/116 210/1/116 209/1/116
f 32/1/117 204/1/117 203/1/117 31/1/117
f 29/1/118 42/1/118 41/1/118 30/1/118
f 30/1/119 41/1/119 40/1/119 32/1/119
f 42/1/120 49/1/120 38/1/120 41/1/120
f 38/1/121 39/1/121 40/1/121 41/1/121
f 36/1/122 37/1/122 38/1/122 39/1/122
f 34/1/123 37/1/123 36/1/123 35/1/123
f 33/1/124 57/1/124 37/1/124 34/1/124
f 57/1/125 33/1/125 23/1/125 58/1/125
f 36/1/126 39/1/126 206/1/126 207/1/126
f 39/1/127 206/1/127 205/1/127 40/1/127
f 40/1/128 205/1/128 204/1/128 32/1/128
f 26/1/129 25/1/129 34/1/129 35/1/129
f 26/1/130 35/1/130 208/1/131 209/1/132
f 35/1/133 36/1/133 207/1/133 208/1/133
f 208/1/134 207/1/134 215/1/134 216/1/134
f 209/1/132 208/1/131 216/1/135 210/1/135
f 212/1/136 211/1/136 203/1/136 204/1/136
f 213/1/137 212/1/137 204/1/137 205/1/137
f 214/1/138 213/1/138 205/1/138 206/1/138
f 207/1/139 206/1/139 214/1/139 215/1/139
f 215/1/140 214/1/140 220/1/140 221/1/140
f 216/1/141 215/1/141 221/1/141 222/1/141
f 210/1/142 216/1/142 222/1/142 223/1/142
f 217/1/143 223/1/143 210/1/143 211/1/143
f 218/1/144 217/1/144 211/1/144 212/1/144
f 219/1/145 218/1/145 212/1/145 213/1/145
f 220/1/146 219/1/146 213/1/146 214/1/146
f 220/1/147 227/1/147 226/1/147 219/1/147
f 221/1/148 220/1/148 227/1/148 228/1/148
f 222/1/149 221/1/149 228/1/149 229/1/149
f 223/1/150 222/1/150 229/1/150 230/1/150
f 224/1/151 230/1/151 223/1/151 217/1/151
f 225/1/152 224/1/152 217/1/152 218/1/152
f 226/1/153 225/1/153 218/1/153 219/1/153
f 105/1/154 104/1/154 100/1/154 99/1/154
f 106/1/155 105/1/155 99/1/155 98/1/155
f 107/1/156 106/1/156 98/1/156 89/1/156
f 114/1/157 107/1/157 89/1/157 108/1/157
f 114/1/158 115/1/158 118/1/158 119/1/158
f 119/1/159 120/1/159 107/1/159 114/1/159
f 106/1/160 107/1/160 120/1/160 121/1/160
f 105/1/161 106/1/161 121/1/161 122/1/161
f 104/1/162 105/1/162 122/1/162 123/1/162
f 124/1/163 123/1/163 128/1/163
f 127/1/164 128/1/164 123/1/164
f 127/1/165 126/1/165 128/1/165
f 126/1/166 125/1/166 128/1/166
f 125/1/167 124/1/167 128/1/167
f 124/1/168 125/1/168 117/1/168
f 118/1/169 117/1/169 125/1/169 135/1/169
f 118/1/170 135/1/170 132/1/170 119/1/170
f 132/1/171 131/1/172 119/1/173
f 119/1/173 131/1/172 120/1/174
f 121/1/175 120/1/175 131/1/175
f 130/1/176 121/1/176 131/1/176
f 122/1/177 121/1/177 130/1/177 129/1/177
f 123/1/178 122/1/178 129/1/178 127/1/178
f 129/1/179 141/1/179 140/1/179 127/1/179
f 130/1/180 142/1/180 141/1/180 129/1/180
f 131/1/181 134/1/181 130/1/181
f 131/1/182 132/1/182 133/1/182 134/1/182
f 133/1/183 132/1/183 135/1/183 136/1/183
f 125/1/184 137/1/184 136/1/184 135/1/184
f 126/1/185 137/1/185 125/1/185
f 139/1/186 127/1/186 140/1/186 146/1/186
f 127/1/187 139/1/187 138/1/187 126/1/187
f 137/1/188 126/1/188 138/1/188 147/1/188
f 136/1/189 137/1/189 147/1/189 148/1/189
f 133/1/190 136/1/190 148/1/190 149/1/190
f 134/1/191 133/1/191 149/1/191 150/1/191
f 134/1/192 150/1/192 143/1/192 130/1/192
f 151/1/193 161/1/193 167/1/193 168/1/193
f 168/1/194 169/1/194 152/1/194 151/1/194
f 162/1/195 153/1/195 152/1/195 169/1/195
f 154/1/196 153/1/196 162/1/196 163/1/196
f 159/1/197 154/1/197 163/1/197 164/1/197
f 158/1/198 159/1/198 164/1/198 165/1/198
f 160/1/199 158/1/199 165/1/199 166/1/199
f 161/1/200 160/1/200 166/1/200 167/1/200
f 149/1/201 148/1/201 151/1/201 161/1/201
f 152/1/202 151/1/202 148/1/202 147/1/202
f 153/1/203 152/1/203 147/1/203 138/1/203
f 154/1/204 153/1/204 138/1/204 139/1/204
f 146/1/205 155/1/205 154/1/205 139/1/205
f 145/1/206 156/1/206 155/1/206 146/1/206
f 140/1/207 141/1/207 145/1/207 146/1/207
f 141/1/208 142/1/208 144/1/208 145/1/208
f 142/1/209 130/1/209 143/1/209 144/1/209
f 144/1/210 157/1/210 156/1/210 145/1/210
f 156/1/211 159/1/211 154/1/211 155/1/211
f 156/1/212 157/1/212 158/1/212 159/1/212
f 143/1/213 158/1/213 157/1/213 144/1/213
f 160/1/214 158/1/214 143/1/214 150/1/214
f 161/1/215 160/1/215 150/1/215 149/1/215
f 166/1/216 173/1/216 172/1/216 167/1/216
f 171/1/217 168/1/217 167/1/217 172/1/217
f 170/1/218 169/1/218 168/1/218 171/1/218
f 169/1/219 177/1/219 162/1/219
f 165/1/220 174/1/220 173/1/220 166/1/220
f 163/1/221 176/1/221 175/1/221 164/1/221
f 164/1/222 175/1/222 174/1/222 165/1/222
f 172/1/223 173/1/223 192/1/223 193/1/223
f 172/1/224 193/1/224 178/1/224 171/1/224
f 170/1/225 171/1/225 178/1/225 179/1/225
f 170/1/226 179/1/226 177/1/226 169/1/226
f 194/1/227 197/1/227 193/1/227
f 193/1/228 192/1/228 194/1/228
f 194/1/229 192/1/229 195/1/229 196/1/229
f 191/1/230 195/1/230 192/1/230 173/1/230
f 190/1/231 191/1/231 173/1/231 174/1/231
f 175/1/232 199/1/232 190/1/232 174/1/232
f 176/1/233 163/1/233 162/1/233 177/1/233
f 175/1/234 176/1/234 184/1/234 199/1/234
f 177/1/235 180/1/235 182/1/235 183/1/235
f 180/1/236 179/1/236 181/1/236
f 179/1/237 180/1/237 177/1/237
f 181/1/238 185/1/238 182/1/238 180/1/238
f 183/1/239 184/1/239 176/1/239 177/1/239
f 181/1/240 179/1/240 186/1/240
f 186/1/241 179/1/241 178/1/241 187/1/241
f 187/1/242 178/1/242 193/1/242 197/1/242
f 188/1/243 187/1/243 197/1/243 198/1/243
f 196/1/244 198/1/244 197/1/244 194/1/244
f 186/1/245 187/1/245 188/1/245 189/1/245
f 185/1/246 181/1/246 186/1/246 189/1/246
f 188/1/247 202/1/247 185/1/247 189/1/247
f 196/1/248 202/1/248 188/1/248 198/1/248
f 185/1/249 202/1/249 201/1/249 182/1/249
f 201/1/250 202/1/250 196/1/250 195/1/250
f 182/1/251 201/1/251 200/1/251 183/1/251
f 200/1/252 201/1/252 195/1/252 191/1/252
f 183/1/253 200/1/253 199/1/253 184/1/253
f 200/1/254 191/1/254 190/1/254 199/1/254
f 401/1/255 21/1/255 8/1/255 7/1/255
f 642/6/256 632/3/256 233/7/256 238/8/256
f 238/8/257 233/7/257 256/9/257 260/10/257
f 255/11/258 251/12/258 237/13/258 246/14/258
f 675/15/259 262/16/259 236/17/259 655/18/259
f 250/19/260 252/20/260 249/21/260 236/22/260
f 252/20/261 253/23/261 248/24/261 249/21/261
f 253/23/262 254/25/262 247/26/262 248/24/262
f 254/25/263 255/11/263 246/14/263 247/26/263
f 232/27/264 241/28/264 259/29/264 258/30/264
f 241/28/265 240/31/265 257/32/265 259/29/265
f 240/31/266 239/33/266 261/34/266 257/32/266
f 239/33/267 238/8/267 260/10/267 261/34/267
f 631/35/268 639/36/268 241/28/268 232/27/268
f 639/36/269 640/37/269 240/31/269 241/28/269
f 640/37/270 641/38/270 239/33/270 240/31/270
f 641/38/271 642/6/271 238/8/271 239/33/271
f 247/26/272 246/14/272 660/39/272 659/40/272
f 248/24/273 247/26/273 659/40/273 658/41/273
f 249/21/274 248/24/274 658/41/274 657/42/274
f 246/14/275 237/13/275 656/43/275 660/39/275
f 236/22/276 249/21/276 657/42/276 655/44/276
f 233/45/277 632/46/278 656/47/278 237/48/277 251/49/277 235/50/277 256/51/277
f 264/52/279 232/53/279 258/54/279 267/55/279
f 243/56/280 242/57/280 255/11/280 254/25/280
f 244/58/281 243/56/281 254/25/281 253/23/281
f 245/59/282 244/58/282 253/23/282 252/20/282
f 234/60/283 245/59/283 252/20/283 250/19/283
f 242/57/284 235/61/284 251/12/284 255/11/284
f 257/32/285 261/34/285 243/56/285 244/58/285
f 261/34/286 260/10/286 242/57/286 243/56/286
f 260/10/287 256/9/287 235/61/287 242/57/287
f 258/30/288 259/29/288 245/59/288 234/60/288
f 259/29/289 257/32/289 244/58/289 245/59/289
f 236/17/290 262/16/290 265/62/290 250/63/290
f 250/63/291 265/62/291 266/64/291 234/65/291
f 262/16/292 263/66/292 266/64/292 265/62/292
f 263/66/293 264/52/293 267/55/293 266/64/293
f 631/67/294 232/53/294 264/52/294 673/68/294
f 673/68/295 264/52/295 263/66/295 674/69/295
f 674/69/296 263/66/296 262/16/296 675/15/296
f 234/65/297 266/64/297 267/55/297 258/54/297
f 233/7/298 256/9/298 272/70/298 268/71/298
f 632/3/299 233/7/299 268/71/299 682/3/299
f 237/13/300 656/43/300 686/43/300 270/13/300
f 235/50/301 256/51/301 272/72/301 269/73/301
f 251/49/302 235/50/302 269/73/302 271/74/302
f 251/12/303 237/13/303 270/13/303 271/75/303
f 271/74/304 269/73/304 54/76/304 53/77/304
f 682/3/305 268/71/305 20/78/305 19/3/305
f 269/73/306 272/72/306 55/79/306 54/76/306
f 270/13/307 686/43/307 436/43/307 52/13/307
f 268/71/308 272/70/308 55/80/308 20/78/308
f 271/75/309 270/13/309 52/13/309 53/81/309
f 230/1/310 224/1/310 225/1/310 226/1/310 227/1/310 228/1/310 229/1/310
f 303/82/311 284/83/311 276/84/311 291/85/311
f 291/85/312 276/84/312 280/86/312 293/87/312
f 299/88/313 288/89/313 278/90/313 295/91/313
f 295/91/314 278/90/314 274/92/314 290/93/314
f 282/94/315 285/95/315 277/96/315 273/97/315
f 288/89/316 283/98/316 274/99/316 278/90/316
f 280/86/317 276/100/317 284/101/317 287/102/317
f 287/102/318 284/101/318 283/98/318 288/89/318
f 275/103/319 279/104/319 286/105/319 281/106/319
f 281/106/320 286/105/320 285/95/320 282/94/320
f 293/87/321 280/86/321 287/102/321 297/107/321
f 297/107/322 287/102/322 288/89/322 299/88/322
f 290/108/323 274/109/323 283/110/324 301/111/324
f 301/111/324 283/110/324 284/83/325 303/82/325
f 282/112/326 302/113/326 304/114/326 281/115/326
f 302/113/327 301/111/327 303/82/327 304/114/327
f 273/116/328 289/117/328 302/113/328 282/112/328
f 289/117/329 290/108/329 301/111/329 302/113/329
f 286/105/330 298/118/330 300/119/330 285/95/330
f 298/118/331 297/107/331 299/88/331 300/119/331
f 279/104/332 294/120/332 298/118/332 286/105/332
f 294/120/333 293/87/333 297/107/333 298/118/333
f 277/96/334 296/121/334 289/122/334 273/123/334
f 296/121/335 295/91/335 290/93/335 289/122/335
f 285/95/336 300/119/336 296/121/336 277/96/336
f 300/119/337 299/88/337 295/91/337 296/121/337
f 275/124/338 292/125/338 294/120/338 279/104/338
f 292/125/339 291/85/339 293/87/339 294/120/339
f 281/115/340 304/114/340 292/125/340 275/124/340
f 304/114/341 303/82/341 291/85/341 292/125/341
f 305/126/342 306/109/342 308/84/342 307/127/342
f 307/127/343 308/84/343 312/86/343 311/128/343
f 311/128/344 312/86/344 310/90/344 309/129/344
f 309/129/345 310/90/345 306/92/345 305/130/345
f 307/131/346 311/128/346 309/129/346 305/132/346
f 312/86/347 308/100/347 306/99/347 310/90/347
f 313/126/348 314/109/348 316/84/348 315/133/348
f 315/133/349 316/84/349 320/86/349 319/134/349
f 319/134/350 320/86/350 318/90/350 317/135/350
f 317/135/351 318/90/351 314/92/351 313/130/351
f 315/136/352 319/134/352 317/135/352 313/137/352
f 320/86/353 316/100/353 314/99/353 318/90/353
f 321/126/354 322/109/354 324/84/354 323/127/354
f 323/127/355 324/84/355 328/86/355 327/128/355
f 327/128/356 328/86/356 326/90/356 325/129/356
f 325/129/357 326/90/357 322/92/357 321/130/357
f 323/131/358 327/128/358 325/129/358 321/132/358
f 328/86/359 324/100/359 322/99/359 326/90/359
f 329/126/360 330/109/360 332/138/360 331/139/360
f 331/139/361 332/138/361 336/86/361 335/134/361
f 335/134/362 336/86/362 334/90/362 333/135/362
f 333/135/363 334/90/363 330/92/363 329/130/363
f 331/140/364 335/134/364 333/135/364 329/137/364
f 336/86/365 332/141/365 330/99/365 334/90/365
f 337/126/366 338/109/366 340/84/366 339/127/366
f 339/127/367 340/84/367 344/86/367 343/128/367
f 343/128/368 344/86/368 342/90/368 341/129/368
f 341/129/369 342/90/369 338/92/369 337/130/369
f 339/131/370 343/128/370 341/129/370 337/132/370
f 344/86/371 340/100/371 338/99/371 342/90/371
f 345/142/372 346/143/372 348/144/372 347/145/372
f 347/145/373 348/144/373 352/86/373 351/134/373
f 351/134/374 352/86/374 350/90/374 349/135/374
f 349/135/375 350/90/375 346/146/375 345/147/375
f 347/148/376 351/134/376 349/135/376 345/149/376
f 352/86/377 348/150/377 346/151/377 350/90/377
f 353/152/378 354/109/378 356/84/378 355/153/378
f 355/153/379 356/84/379 360/86/379 359/154/379
f 359/154/380 360/86/380 358/90/380 357/155/380
f 357/155/381 358/90/381 354/92/381 353/156/381
f 355/157/382 359/154/382 357/155/382 353/158/382
f 360/86/383 356/100/383 354/99/383 358/90/383
f 361/159/384 363/160/384 364/86/384 362/84/384
f 366/161/385 365/84/385 368/86/385 367/162/385
f 361/159/386 362/84/386 365/84/386 366/161/386
f 364/86/387 363/160/387 367/162/387 368/86/387
f 363/160/388 361/159/388 366/161/388 367/162/388
f 362/84/389 364/86/389 368/86/389 365/84/389
f 369/163/390 371/164/390 372/86/390 370/84/390
f 374/165/391 373/84/391 376/86/391 375/166/391
f 369/163/392 370/84/392 373/84/392 374/165/392
f 372/86/393 371/164/393 375/166/393 376/86/393
f 371/164/394 369/163/394 374/165/394 375/166/394
f 370/84/395 372/86/395 376/86/395 373/84/395
f 377/1/396 379/4/396 380/3/396 378/2/396
f 394/1/397 398/1/397 397/1/397 396/1/397
f 390/1/398 409/1/398 391/1/398 388/1/398
f 389/1/399 410/1/399 409/1/399 390/1/399
f 408/1/400 411/1/400 410/1/400 389/1/400
f 407/1/401 412/1/401 408/1/401 386/1/401
f 413/1/402 411/1/402 408/1/402 412/1/402
f 431/1/403 440/1/403 432/1/403 429/1/403
f 441/1/404 433/1/404 432/1/404 440/1/404
f 431/1/405 440/1/405 442/1/405 418/1/405
f 445/1/406 441/1/406 440/1/406 444/1/406
f 440/1/407 443/1/407 446/1/407 444/1/407
f 404/1/408 447/1/408 446/1/408 443/1/408
f 403/1/409 448/1/409 447/1/409 404/1/409
f 449/1/410 448/1/410 403/1/410 402/1/410
f 450/1/411 449/1/411 402/1/411 401/1/411
f 448/1/412 449/1/412 452/1/412 453/1/412
f 400/1/413 383/1/413 401/1/413
f 394/1/414 396/1/414 395/1/414 379/5/414
f 377/1/415 399/1/415 395/1/415 379/5/415
f 383/1/416 400/1/416 399/1/416 377/1/416
f 378/2/417 384/1/417 383/1/417 377/1/417
f 449/1/418 450/1/418 451/1/418 452/1/418
f 452/1/419 451/1/419 458/1/419 460/1/419
f 459/1/420 477/1/420 460/1/420 458/1/420
f 477/1/421 459/1/421 478/1/421
f 478/1/422 480/1/422 479/1/422 477/1/422
f 480/1/423 512/1/423 511/1/423 479/1/423
f 476/1/424 477/1/424 479/1/424 630/1/424
f 460/1/425 477/1/425 476/1/425 461/1/425
f 453/1/426 452/1/426 460/1/426 461/1/426
f 385/1/427 403/1/427 402/1/427 384/1/427
f 382/1/428 385/1/428 384/1/428 378/2/428
f 378/2/429 380/3/429 381/1/429 382/1/429
f 379/5/430 394/1/430 393/1/430 380/3/430
f 393/1/431 394/1/431 398/1/431 439/1/431
f 380/3/432 393/1/432 392/1/432 381/1/432
f 393/1/433 439/1/433 438/1/433 392/1/433
f 381/1/434 388/1/434 391/1/434 392/1/434
f 392/1/435 438/1/435 437/1/435 426/1/435
f 426/1/436 437/1/436 435/1/436 427/1/436
f 434/1/437 427/1/437 435/1/437 436/1/437
f 433/1/438 434/1/438 427/1/438 432/1/438
f 427/1/439 428/1/439 429/1/439 432/1/439
f 427/1/440 425/1/440 428/1/440
f 426/1/441 425/1/441 427/1/441
f 392/1/442 391/1/442 425/1/442 426/1/442
f 391/1/443 409/1/443 424/1/443 425/1/443
f 409/1/444 410/1/444 423/1/444 424/1/444
f 423/1/445 430/1/445 425/1/445 424/1/445
f 425/1/446 430/1/446 429/1/446 428/1/446
f 429/1/447 430/1/447 419/1/447 431/1/447
f 419/1/448 431/1/448 418/1/448
f 443/1/449 442/1/449 440/1/449
f 445/1/450 444/1/450 456/1/450 457/1/450
f 457/1/451 456/1/451 465/1/451 466/1/451
f 466/1/452 465/1/452 467/1/452 468/1/452
f 468/1/453 467/1/453 469/1/453 470/1/453
f 470/1/454 469/1/454 471/1/454 472/1/454
f 464/1/455 473/1/455 469/1/455 467/1/455
f 464/1/456 467/1/456 465/1/456 456/1/456
f 456/1/457 455/1/457 463/1/457 464/1/457
f 444/1/458 446/1/458 455/1/458 456/1/458
f 446/1/459 447/1/459 454/1/459 455/1/459
f 455/1/460 454/1/460 462/1/460 463/1/460
f 463/1/461 474/1/461 473/1/461 464/1/461
f 471/1/462 469/1/462 473/1/462 492/1/462
f 471/1/463 492/1/463 491/1/463 485/1/463
f 471/1/464 485/1/464 484/1/464 472/1/464
f 484/1/465 485/1/465 483/1/465
f 481/1/466 483/1/466 485/1/466 486/1/466
f 483/1/467 481/1/467 482/1/467
f 481/1/468 480/1/468 478/1/468 482/1/468
f 480/1/469 481/1/469 487/1/469 512/1/469
f 510/1/470 630/1/470 479/1/470 511/1/470
f 476/1/471 630/1/471 494/1/471 475/1/471
f 461/1/472 476/1/472 475/1/472 462/1/472
f 454/1/473 453/1/473 461/1/473 462/1/473
f 447/1/474 448/1/474 453/1/474 454/1/474
f 462/1/475 475/1/475 474/1/475 463/1/475
f 474/1/476 493/1/476 492/1/476 473/1/476
f 492/1/477 493/1/477 491/1/477
f 485/1/478 491/1/478 490/1/478 486/1/478
f 491/1/479 493/1/479 490/1/479
f 475/1/480 494/1/480 493/1/480 474/1/480
f 494/1/481 500/1/481 495/1/481 493/1/481
f 494/1/482 630/1/482 510/1/482 500/1/482
f 509/1/483 508/1/483 514/1/483 515/1/483
f 508/1/484 509/1/484 510/1/484 511/1/484
f 507/1/485 508/1/485 511/1/485 512/1/485
f 487/1/486 488/1/486 507/1/486 512/1/486
f 486/1/487 489/1/487 487/1/487 481/1/487
f 489/1/488 486/1/488 490/1/488 496/1/488
f 490/1/489 493/1/489 495/1/489 496/1/489
f 499/1/490 495/1/490 500/1/490 501/1/490
f 500/1/491 510/1/491 509/1/491 501/1/491
f 502/1/492 501/1/492 509/1/492 515/1/492
f 499/1/493 501/1/493 502/1/493 503/1/493
f 495/1/494 499/1/494 498/1/494 496/1/494
f 496/1/495 498/1/495 497/1/495 489/1/495
f 488/1/496 487/1/496 489/1/496 497/1/496
f 508/1/497 507/1/497 513/1/497 514/1/497
f 514/1/498 517/1/498 516/1/498 515/1/498
f 516/1/499 523/1/499 502/1/499 515/1/499
f 502/1/500 523/1/500 522/1/500 503/1/500
f 381/1/501 388/1/501 387/1/501 382/1/501
f 388/1/502 390/1/502 389/1/502 387/1/502
f 382/1/503 387/1/503 386/1/503 385/1/503
f 386/1/504 406/1/504 405/1/504 385/1/504
f 385/1/505 405/1/505 404/1/505 403/1/505
f 405/1/506 414/1/506 404/1/506
f 406/1/507 415/1/507 414/1/507 405/1/507
f 406/1/508 386/1/508 407/1/508
f 386/1/509 387/1/509 389/1/509 408/1/509
f 407/1/510 608/1/510 602/1/510 412/1/510
f 602/1/511 608/1/511 609/1/511 610/1/511
f 413/1/512 412/1/512 602/1/512 603/1/512
f 410/1/513 411/1/513 422/1/513 423/1/513
f 411/1/514 413/1/514 421/1/514 422/1/514
f 423/1/515 422/1/515 419/1/515 430/1/515
f 419/1/516 422/1/516 421/1/516 420/1/516
f 417/1/517 420/1/517 419/1/517 418/1/517
f 415/1/518 416/1/518 417/1/518 418/1/518
f 414/1/519 415/1/519 418/1/519 442/1/519
f 442/1/520 443/1/520 404/1/520 414/1/520
f 417/1/521 606/1/521 605/1/521 420/1/521
f 420/1/522 421/1/522 604/1/522 605/1/522
f 421/1/523 413/1/523 603/1/523 604/1/523
f 407/1/524 416/1/524 415/1/524 406/1/524
f 407/1/525 608/1/526 607/1/527 416/1/525
f 416/1/528 607/1/528 606/1/528 417/1/528
f 607/1/529 615/1/529 614/1/529 606/1/529
f 608/1/526 609/1/530 615/1/530 607/1/527
f 611/1/531 603/1/531 602/1/531 610/1/531
f 612/1/532 604/1/532 603/1/532 611/1/532
f 613/1/533 605/1/533 604/1/533 612/1/533
f 606/1/534 614/1/534 613/1/534 605/1/534
f 614/1/535 620/1/535 619/1/535 613/1/535
f 615/1/536 621/1/536 620/1/536 614/1/536
f 609/1/537 622/1/537 621/1/537 615/1/537
f 616/1/538 610/1/538 609/1/538 622/1/538
f 617/1/539 611/1/539 610/1/539 616/1/539
f 618/1/540 612/1/540 611/1/540 617/1/540
f 619/1/541 613/1/541 612/1/541 618/1/541
f 619/1/542 618/1/542 625/1/542 626/1/542
f 620/1/543 627/1/543 626/1/543 619/1/543
f 621/1/544 628/1/544 627/1/544 620/1/544
f 622/1/545 629/1/545 628/1/545 621/1/545
f 623/1/546 616/1/546 622/1/546 629/1/546
f 624/1/547 617/1/547 616/1/547 623/1/547
f 625/1/548 618/1/548 617/1/548 624/1/548
f 504/1/549 498/1/549 499/1/549 503/1/549
f 505/1/550 497/1/550 498/1/550 504/1/550
f 506/1/551 488/1/551 497/1/551 505/1/551
f 513/1/552 507/1/552 488/1/552 506/1/552
f 513/1/553 518/1/553 517/1/553 514/1/553
f 518/1/554 513/1/554 506/1/554 519/1/554
f 505/1/555 520/1/555 519/1/555 506/1/555
f 504/1/556 521/1/556 520/1/556 505/1/556
f 503/1/557 522/1/557 521/1/557 504/1/557
f 523/1/558 527/1/558 522/1/558
f 526/1/559 522/1/559 527/1/559
f 526/1/560 527/1/560 525/1/560
f 525/1/561 527/1/561 524/1/561
f 524/1/562 527/1/562 523/1/562
f 523/1/563 516/1/563 524/1/563
f 517/1/564 534/1/564 524/1/564 516/1/564
f 517/1/565 518/1/565 531/1/565 534/1/565
f 531/1/566 518/1/567 530/1/568
f 518/1/567 519/1/569 530/1/568
f 520/1/570 530/1/570 519/1/570
f 529/1/571 530/1/571 520/1/571
f 521/1/572 528/1/572 529/1/572 520/1/572
f 522/1/573 526/1/573 528/1/573 521/1/573
f 528/1/574 526/1/574 539/1/574 540/1/574
f 529/1/575 528/1/575 540/1/575 541/1/575
f 530/1/576 529/1/576 533/1/576
f 530/1/577 533/1/577 532/1/577 531/1/577
f 532/1/578 535/1/578 534/1/578 531/1/578
f 524/1/579 534/1/579 535/1/579 536/1/579
f 525/1/580 524/1/580 536/1/580
f 538/1/581 545/1/581 539/1/581 526/1/581
f 526/1/582 525/1/582 537/1/582 538/1/582
f 536/1/583 546/1/583 537/1/583 525/1/583
f 535/1/584 547/1/584 546/1/584 536/1/584
f 532/1/585 548/1/585 547/1/585 535/1/585
f 533/1/586 549/1/586 548/1/586 532/1/586
f 533/1/587 529/1/587 542/1/587 549/1/587
f 550/1/588 567/1/588 566/1/588 560/1/588
f 567/1/589 550/1/589 551/1/589 568/1/589
f 561/1/590 568/1/590 551/1/590 552/1/590
f 553/1/591 562/1/591 561/1/591 552/1/591
f 558/1/592 563/1/592 562/1/592 553/1/592
f 557/1/593 564/1/593 563/1/593 558/1/593
f 559/1/594 565/1/594 564/1/594 557/1/594
f 560/1/595 566/1/595 565/1/595 559/1/595
f 548/1/596 560/1/596 550/1/596 547/1/596
f 551/1/597 546/1/597 547/1/597 550/1/597
f 552/1/598 537/1/598 546/1/598 551/1/598
f 553/1/599 538/1/599 537/1/599 552/1/599
f 545/1/600 538/1/600 553/1/600 554/1/600
f 544/1/601 545/1/601 554/1/601 555/1/601
f 539/1/602 545/1/602 544/1/602 540/1/602
f 540/1/603 544/1/603 543/1/603 541/1/603
f 541/1/604 543/1/604 542/1/604 529/1/604
f 543/1/605 544/1/605 555/1/605 556/1/605
f 555/1/606 554/1/606 553/1/606 558/1/606
f 555/1/607 558/1/607 557/1/607 556/1/607
f 542/1/608 543/1/608 556/1/608 557/1/608
f 559/1/609 549/1/609 542/1/609 557/1/609
f 560/1/610 548/1/610 549/1/610 559/1/610
f 565/1/611 566/1/611 571/1/611 572/1/611
f 570/1/612 571/1/612 566/1/612 567/1/612
f 569/1/613 570/1/613 567/1/613 568/1/613
f 568/1/614 561/1/614 576/1/614
f 564/1/615 565/1/615 572/1/615 573/1/615
f 562/1/616 563/1/616 574/1/616 575/1/616
f 563/1/617 564/1/617 573/1/617 574/1/617
f 571/1/618 592/1/618 591/1/618 572/1/618
f 571/1/619 570/1/619 577/1/619 592/1/619
f 569/1/620 578/1/620 577/1/620 570/1/620
f 569/1/621 568/1/621 576/1/621 578/1/621
f 593/1/622 592/1/622 596/1/622
f 592/1/623 593/1/623 591/1/623
f 593/1/624 595/1/624 594/1/624 591/1/624
f 590/1/625 572/1/625 591/1/625 594/1/625
f 589/1/626 573/1/626 572/1/626 590/1/626
f 574/1/627 573/1/627 589/1/627 598/1/627
f 575/1/628 576/1/628 561/1/628 562/1/628
f 574/1/629 598/1/629 583/1/629 575/1/629
f 576/1/630 582/1/630 581/1/630 579/1/630
f 579/1/631 580/1/631 578/1/631
f 578/1/632 576/1/632 579/1/632
f 580/1/633 579/1/633 581/1/633 584/1/633
f 582/1/634 576/1/634 575/1/634 583/1/634
f 580/1/635 585/1/635 578/1/635
f 585/1/636 586/1/636 577/1/636 578/1/636
f 586/1/637 596/1/637 592/1/637 577/1/637
f 587/1/638 597/1/638 596/1/638 586/1/638
f 595/1/639 593/1/639 596/1/639 597/1/639
f 585/1/640 588/1/640 587/1/640 586/1/640
f 584/1/641 588/1/641 585/1/641 580/1/641
f 587/1/642 588/1/642 584/1/642 601/1/642
f 595/1/643 597/1/643 587/1/643 601/1/643
f 584/1/644 581/1/644 600/1/644 601/1/644
f 600/1/645 594/1/645 595/1/645 601/1/645
f 581/1/646 582/1/646 599/1/646 600/1/646
f 599/1/647 590/1/647 594/1/647 600/1/647
f 582/1/648 583/1/648 598/1/648 599/1/648
f 599/1/649 598/1/649 589/1/649 590/1/649
f 401/1/650 383/1/650 384/1/650 402/1/650
f 642/6/651 643/8/651 634/7/651 632/3/651
f 643/8/652 671/10/652 667/9/652 634/7/652
f 666/11/653 651/14/653 638/13/653 662/12/653
f 675/15/654 655/18/654 637/17/654 676/16/654
f 661/19/655 637/22/655 654/21/655 663/20/655
f 663/20/656 654/21/656 653/24/656 664/23/656
f 664/23/657 653/24/657 652/26/657 665/25/657
f 665/25/658 652/26/658 651/14/658 666/11/658
f 633/27/659 669/30/659 670/29/659 646/28/659
f 646/28/660 670/29/660 668/32/660 645/31/660
f 645/31/661 668/32/661 672/34/661 644/33/661
f 644/33/662 672/34/662 671/10/662 643/8/662
f 631/35/663 633/27/663 646/28/663 639/36/663
f 639/36/664 646/28/664 645/31/664 640/37/664
f 640/37/665 645/31/665 644/33/665 641/38/665
f 641/38/666 644/33/666 643/8/666 642/6/666
f 652/26/667 659/40/667 660/39/667 651/14/667
f 653/24/668 658/41/668 659/40/668 652/26/668
f 654/21/669 657/42/669 658/41/669 653/24/669
f 651/14/670 660/39/670 656/43/670 638/13/670
f 637/22/671 655/44/671 657/42/671 654/21/671
f 634/45/672 667/51/672 636/50/672 662/49/672 638/48/672 656/47/278 632/46/278
f 678/52/673 681/55/673 669/54/673 633/53/673
f 648/56/674 665/25/674 666/11/674 647/57/674
f 649/58/675 664/23/675 665/25/675 648/56/675
f 650/59/676 663/20/676 664/23/676 649/58/676
f 635/60/677 661/19/677 663/20/677 650/59/677
f 647/57/678 666/11/678 662/12/678 636/61/678
f 668/32/679 649/58/679 648/56/679 672/34/679
f 672/34/680 648/56/680 647/57/680 671/10/680
f 671/10/681 647/57/681 636/61/681 667/9/681
f 669/30/682 635/60/682 650/59/682 670/29/682
f 670/29/683 650/59/683 649/58/683 668/32/683
f 637/17/684 661/63/684 679/62/684 676/16/684
f 661/63/685 635/65/685 680/64/685 679/62/685
f 676/16/686 679/62/686 680/64/686 677/66/686
f 677/66/687 680/64/687 681/55/687 678/52/687
f 631/67/688 673/68/688 678/52/688 633/53/688
f 673/68/689 674/69/689 677/66/689 678/52/689
f 674/69/690 675/15/690 676/16/690 677/66/690
f 635/65/691 669/54/691 681/55/691 680/64/691
f 634/7/692 683/71/692 688/70/692 667/9/692
f 632/3/693 682/3/693 683/71/693 634/7/693
f 638/13/694 685/13/694 686/43/694 656/43/694
f 636/50/695 684/73/695 688/72/695 667/51/695
f 662/49/696 687/74/696 684/73/696 636/50/696
f 662/12/697 687/75/697 685/13/697 638/13/697
f 687/74/698 437/77/698 438/76/698 684/73/698
f 682/3/699 397/3/699 398/78/699 683/71/699
f 684/73/700 438/76/700 439/79/700 688/72/700
f 685/13/701 435/13/701 436/43/701 686/43/701
f 683/71/702 398/78/702 439/80/702 688/70/702
f 687/75/703 437/81/703 435/13/703 685/13/703
f 629/1/704 628/1/704 627/1/704 626/1/704 625/1/704 624/1/704 623/1/704
f 719/82/705 707/85/705 692/84/705 700/83/705
f 707/85/706 709/87/706 696/86/706 692/84/706
f 715/88/707 711/91/707 694/90/707 704/89/707
f 711/91/708 706/93/708 690/92/708 694/90/708
f 698/94/709 689/97/709 693/96/709 701/95/709
f 704/89/710 694/90/710 690/99/710 699/98/710
f 696/86/711 703/102/711 700/101/711 692/100/711
f 703/102/712 704/89/712 699/98/712 700/101/712
f 691/103/713 697/106/713 702/105/713 695/104/713
f 697/106/714 698/94/714 701/95/714 702/105/714
f 709/87/715 713/107/715 703/102/715 696/86/715
f 713/107/716 715/88/716 704/89/716 703/102/716
f 706/108/717 717/111/718 699/110/718 690/109/717
f 717/111/718 719/82/719 700/83/719 699/110/718
f 698/112/720 697/115/720 720/114/720 718/113/720
f 718/113/721 720/114/721 719/82/721 717/111/721
f 689/116/722 698/112/722 718/113/722 705/117/722
f 705/117/723 718/113/723 717/111/723 706/108/723
f 702/105/724 701/95/724 716/119/724 714/118/724
f 714/118/725 716/119/725 715/88/725 713/107/725
f 695/104/726 702/105/726 714/118/726 710/120/726
f 710/120/727 714/118/727 713/107/727 709/87/727
f 693/96/728 689/123/728 705/122/728 712/121/728
f 712/121/729 705/122/729 706/93/729 711/91/729
f 701/95/730 693/96/730 712/121/730 716/119/730
f 716/119/731 712/121/731 711/91/731 715/88/731
f 691/124/732 695/104/732 710/120/732 708/125/732
f 708/125/733 710/120/733 709/87/733 707/85/733
f 697/115/734 691/124/734 708/125/734 720/114/734
f 720/114/735 708/125/735 707/85/735 719/82/735
f 721/126/736 723/127/736 724/84/736 722/109/736
f 723/127/737 727/128/737 728/86/737 724/84/737
f 727/128/738 725/129/738 726/90/738 728/86/738
f 725/129/739 721/130/739 722/92/739 726/90/739
f 723/131/740 721/132/740 725/129/740 727/128/740
f 728/86/741 726/90/741 722/99/741 724/100/741
f 729/126/742 731/133/742 732/84/742 730/109/742
f 731/133/743 735/134/743 736/86/743 732/84/743
f 735/134/744 733/135/744 734/90/744 736/86/744
f 733/135/745 729/130/745 730/92/745 734/90/745
f 731/136/746 729/137/746 733/135/746 735/134/746
f 736/86/747 734/90/747 730/99/747 732/100/747
f 737/126/748 739/127/748 740/84/748 738/109/748
f 739/127/749 743/128/749 744/86/749 740/84/749
f 743/128/750 741/129/750 742/90/750 744/86/750
f 741/129/751 737/130/751 738/92/751 742/90/751
f 739/131/752 737/132/752 741/129/752 743/128/752
f 744/86/753 742/90/753 738/99/753 740/100/753
f 745/126/754 747/139/754 748/138/754 746/109/754
f 747/139/755 751/134/755 752/86/755 748/138/755
f 751/134/756 749/135/756 750/90/756 752/86/756
f 749/135/757 745/130/757 746/92/757 750/90/757
f 747/140/758 745/137/758 749/135/758 751/134/758
f 752/86/759 750/90/759 746/99/759 748/141/759
f 753/126/760 755/127/760 756/84/760 754/109/760
f 755/127/761 759/128/761 760/86/761 756/84/761
f 759/128/762 757/129/762 758/90/762 760/86/762
f 757/129/763 753/130/763 754/92/763 758/90/763
f 755/131/764 753/132/764 757/129/764 759/128/764
f 760/86/765 758/90/765 754/99/765 756/100/765
f 761/142/766 763/145/766 764/144/766 762/143/766
f 763/145/767 767/134/767 768/86/767 764/144/767
f 767/134/768 765/135/768 766/90/768 768/86/768
f 765/135/769 761/147/769 762/146/769 766/90/769
f 763/148/770 761/149/770 765/135/770 767/134/770
f 768/86/771 766/90/771 762/151/771 764/150/771
f 769/152/772 771/153/772 772/84/772 770/109/772
f 771/153/773 775/154/773 776/86/773 772/84/773
f 775/154/774 773/155/774 774/90/774 776/86/774
f 773/155/775 769/156/775 770/92/775 774/90/775
f 771/157/776 769/158/776 773/155/776 775/154/776
f 776/86/777 774/90/777 770/99/777 772/100/777
f 777/159/778 778/84/778 780/86/778 779/160/778
f 782/161/779 783/162/779 784/86/779 781/84/779
f 777/159/780 782/161/780 781/84/780 778/84/780
f 780/86/781 784/86/781 783/162/781 779/160/781
f 779/160/782 783/162/782 782/161/782 777/159/782
f 778/84/783 781/84/783 784/86/783 780/86/783
f 785/163/784 786/84/784 788/86/784 787/164/784
f 790/165/785 791/166/785 792/86/785 789/84/785
f 785/163/786 790/165/786 789/84/786 786/84/786
f 788/86/787 792/86/787 791/166/787 787/164/787
f 787/164/788 791/166/788 790/165/788 785/163/788
f 786/84/789 789/84/789 792/86/789 788/86/789
